<svg width="45" height="45" viewBox="0 0 45 45" fill="none" xmlns="http://www.w3.org/2000/svg"><path fill="#4DC1FF" d="M30.3563 3.75H14.6438C7.81875 3.75 3.75 7.81875 3.75 14.6438V30.3375C3.75 37.1813 7.81875 41.25 14.6438 41.25H30.3375C37.1625 41.25 41.2313 37.1813 41.2313 30.3563V14.6438C41.25 7.81875 37.1813 3.75 30.3563 3.75ZM18 30.375C18 32.2313 16.4813 33.75 14.625 33.75C12.7688 33.75 11.25 32.2313 11.25 30.375C11.25 28.5188 12.7688 27 14.625 27H16.125C17.1563 27 18 27.8438 18 28.875V30.375ZM18 16.125C18 17.1563 17.1563 18 16.125 18H14.625C12.7688 18 11.25 16.4813 11.25 14.625C11.25 12.7688 12.7688 11.25 14.625 11.25C16.4813 11.25 18 12.7688 18 14.625V16.125ZM26.5312 24.8438C26.5312 25.7625 25.7813 26.5312 24.8438 26.5312H20.1375C19.2188 26.5312 18.45 25.7812 18.45 24.8438V20.1375C18.45 19.2188 19.2 18.45 20.1375 18.45H24.8438C25.7625 18.45 26.5312 19.2 26.5312 20.1375V24.8438ZM30.375 33.75C28.5188 33.75 27 32.2313 27 30.375V28.875C27 27.8438 27.8438 27 28.875 27H30.375C32.2313 27 33.75 28.5188 33.75 30.375C33.75 32.2313 32.2313 33.75 30.375 33.75ZM30.375 18H28.875C27.8438 18 27 17.1563 27 16.125V14.625C27 12.7688 28.5188 11.25 30.375 11.25C32.2313 11.25 33.75 12.7688 33.75 14.625C33.75 16.4813 32.2313 18 30.375 18Z"/></svg>