<svg width="1920" height="1029" viewBox="0 0 1920 1029" fill="none" xmlns="http://www.w3.org/2000/svg"><path d="M2102.93 876.421C2088.73 864.825 2073.24 852.689 2057.68 841.383C2020.26 812.097 1963.83 784.387 1893.01 760.537C1751.54 715.786 1537.58 713.162 1412.35 736.077C1318.07 753.038 1237.08 775.777 1172.48 803.42L1167.63 805.473C1108.92 837.118 1023.35 861.477 918.106 876.508C884.894 880.539 848.28 882.459 809.798 882.186C704.174 880.583 612.515 857.906 521.926 809.797C465.475 780.608 414.553 749.221 365.531 718.85C344.791 706.008 322.77 692.628 302.708 679.641C292.668 673.252 282.666 666.447 273.944 660.182C265.222 653.917 260.94 649.955 254.098 644.914C216.285 615.601 177.232 585.335 85.8991 566.246C22.0613 553.671 -45.9526 545.279 -113.325 541.666C-180.697 538.053 -245.779 539.306 -303.961 545.338L-303.844 544.093C-245.743 538.095 -180.833 536.815 -113.619 540.343C-46.4042 543.871 21.5049 552.122 85.3965 564.524C177.97 584.567 217.663 615.104 255.436 644.831C262.278 649.872 269.12 654.913 275.302 659.892C283.836 666.462 293.441 672.959 304.066 679.351C326.106 692.524 347.467 705.843 366.889 718.559C415.911 748.93 466.833 780.318 522.645 809.237C615.231 857.325 702.954 879.422 807.259 880.9C845.382 881.297 881.604 879.402 914.228 875.304C1019.03 860.372 1104.16 836.105 1162.4 804.56L1167.25 802.507C1232.44 774.867 1313.61 752.026 1407.81 734.812C1534.4 711.606 1750.34 714.417 1893.09 759.707C1964.36 783.728 2021.22 811.616 2059.03 841.093C2074.58 852.606 2090.04 864.949 2104.29 876.131C2118.53 887.312 2141.48 904.966 2162.09 919.26L2161.87 921.542C2141.98 906.688 2122.14 891.42 2102.93 876.421Z" fill="#E5FAFF"/><path d="M2102.49 868.952C2088.28 857.356 2072.8 845.22 2057.23 833.914C2019.82 804.629 1963.38 776.919 1892.57 753.068C1751.1 708.317 1537.14 705.693 1411.9 728.609C1317.63 745.57 1236.64 768.308 1172.04 795.951L1167.19 798.004C1108.48 829.649 1022.91 854.009 917.664 869.039C884.453 873.07 847.838 874.99 809.357 874.717C703.733 873.115 612.073 850.437 521.485 802.328C465.033 773.139 414.112 741.752 365.09 711.381C344.349 698.54 322.329 685.159 302.267 672.172C292.226 665.783 282.225 658.978 273.503 652.713C264.781 646.448 260.498 642.486 253.656 637.445C215.844 608.133 176.791 577.866 85.4577 558.777C21.6199 546.202 -46.394 537.81 -113.766 534.197C-181.138 530.584 -246.22 531.838 -304.403 537.869L-304.285 536.624C-246.184 530.626 -181.274 529.346 -114.06 532.875C-46.8457 536.403 21.0635 544.654 84.955 557.055C177.528 577.098 217.221 607.635 254.995 637.362C261.836 642.403 268.678 647.444 274.861 652.423C283.395 658.993 292.999 665.49 303.625 671.882C325.665 685.055 347.026 698.374 366.448 711.091C415.47 741.462 466.391 772.849 522.203 801.768C614.789 849.857 702.512 871.953 806.817 873.431C844.941 873.828 881.163 871.934 913.786 867.835C1018.59 852.903 1103.72 828.636 1161.95 797.091L1166.8 795.038C1232 767.398 1313.17 744.557 1407.37 727.343C1533.96 704.137 1749.9 706.948 1892.65 752.239C1963.92 776.26 2020.78 804.147 2058.59 833.624C2074.14 845.137 2089.6 857.481 2103.85 868.662C2118.09 879.844 2141.04 897.498 2161.64 911.791L2161.43 914.073C2141.54 899.219 2121.7 883.951 2102.49 868.952Z" fill="#E5FAFF"/><path d="M2108.94 855.191C2094.73 843.594 2079.25 831.459 2063.68 820.153C2026.27 790.867 1969.83 763.157 1899.02 739.307C1757.55 694.556 1543.59 691.931 1418.35 714.847C1324.08 731.808 1243.09 754.546 1178.49 782.189L1173.64 784.243C1114.93 815.887 1029.36 840.247 924.113 855.277C890.902 859.309 854.288 861.228 815.806 860.955C710.182 859.353 618.523 836.676 527.934 788.567C471.483 759.378 420.561 727.99 371.539 697.619C350.798 684.778 328.778 671.397 308.716 658.411C298.675 652.021 288.674 645.217 279.952 638.952C271.23 632.687 266.947 628.725 260.105 623.683C222.293 594.371 183.24 564.104 91.9069 545.015C28.0691 532.44 -39.9448 524.049 -107.317 520.435C-174.689 516.822 -239.771 518.076 -297.953 524.107L-297.836 522.863C-239.735 516.864 -174.825 515.585 -107.611 519.113C-40.3965 522.641 27.5127 530.892 91.4043 543.294C183.978 563.337 223.67 593.873 261.444 623.601C268.286 628.642 275.127 633.683 281.31 638.661C289.844 645.231 299.449 651.728 310.074 658.12C332.114 671.294 353.475 684.612 372.897 697.329C421.919 727.7 472.841 759.087 528.652 788.007C621.238 836.095 708.961 858.191 813.266 859.669C851.39 860.067 887.612 858.172 920.235 854.074C1025.04 839.142 1110.17 814.874 1168.4 783.33L1173.25 781.276C1238.45 753.637 1319.62 730.795 1413.82 713.581C1540.41 690.376 1756.35 693.187 1899.1 738.477C1970.37 762.498 2027.23 790.386 2065.04 819.862C2080.59 831.376 2096.05 843.719 2110.3 854.9C2124.54 866.082 2147.49 883.736 2168.09 898.029L2167.88 900.311C2147.99 885.458 2128.15 870.189 2108.94 855.191Z" fill="#E5FAFF"/><path d="M2115.39 841.425C2101.18 829.829 2085.7 817.693 2070.13 806.387C2032.72 777.101 1976.28 749.391 1905.47 725.541C1764 680.79 1550.04 678.166 1424.8 701.081C1330.53 718.042 1249.54 740.78 1184.94 768.424L1180.09 770.477C1121.38 802.121 1035.81 826.481 930.563 841.511C897.351 845.543 860.737 847.463 822.255 847.19C716.631 845.587 624.972 822.91 534.383 774.801C477.932 745.612 427.01 714.225 377.988 683.854C357.248 671.012 335.227 657.632 315.165 644.645C305.125 638.256 295.123 631.451 286.401 625.186C277.679 618.921 273.396 614.959 266.555 609.918C228.742 580.605 189.689 550.338 98.3561 531.25C34.5183 518.674 -33.4956 510.283 -100.868 506.67C-168.24 503.057 -233.322 504.31 -291.504 510.342L-291.387 509.097C-233.286 503.099 -168.376 501.819 -101.162 505.347C-33.9472 508.875 33.9619 517.126 97.8535 529.528C190.427 549.571 230.12 580.108 267.893 609.835C274.735 614.876 281.577 619.917 287.759 624.896C296.293 631.465 305.898 637.963 316.523 644.355C338.563 657.528 359.924 670.846 379.346 683.563C428.368 713.934 479.29 745.322 535.101 774.241C627.688 822.329 715.41 844.426 819.716 845.904C857.839 846.301 894.061 844.406 926.685 840.308C1031.49 825.376 1116.62 801.109 1174.85 769.564L1179.7 767.511C1244.9 739.871 1326.07 717.03 1420.26 699.816C1546.86 676.61 1762.8 679.421 1905.54 724.711C1976.82 748.732 2033.68 776.62 2071.49 806.097C2087.04 817.61 2102.5 829.953 2116.75 841.135C2130.99 852.316 2153.94 869.97 2174.54 884.264L2174.33 886.545C2154.44 871.692 2134.59 856.424 2115.39 841.425Z" fill="#E5FAFF"/><path d="M2121.84 827.663C2107.63 816.067 2092.15 803.931 2076.58 792.625C2039.17 763.34 1982.73 735.63 1911.92 711.779C1770.45 667.028 1556.49 664.404 1431.25 687.32C1336.98 704.281 1255.99 727.019 1191.39 754.662L1186.54 756.715C1127.83 788.36 1042.26 812.72 937.012 827.75C903.801 831.781 867.186 833.701 828.704 833.428C723.08 831.826 631.421 809.148 540.832 761.039C484.381 731.85 433.459 700.463 384.438 670.092C363.697 657.251 341.676 643.87 321.615 630.883C311.574 624.494 301.572 617.689 292.85 611.424C284.128 605.159 279.846 601.197 273.004 596.156C235.191 566.844 196.138 536.577 104.805 517.488C40.9675 504.913 -27.0463 496.521 -94.4185 492.908C-161.791 489.295 -226.873 490.548 -285.055 496.58L-284.937 495.335C-226.837 489.337 -161.927 488.057 -94.7124 491.585C-27.498 495.113 40.4111 503.365 104.303 515.766C196.876 535.809 236.569 566.346 274.342 596.073C281.184 601.114 288.026 606.155 294.208 611.134C302.743 617.704 312.347 624.201 322.972 630.593C345.012 643.766 366.373 657.085 385.795 669.801C434.817 700.173 485.739 731.56 541.551 760.479C634.137 808.568 721.86 830.664 826.165 832.142C864.288 832.539 900.51 830.644 933.134 826.546C1037.94 811.614 1123.07 787.347 1181.3 755.802L1186.15 753.749C1251.35 726.109 1332.52 703.268 1426.71 686.054C1553.31 662.848 1769.25 665.659 1911.99 710.95C1983.27 734.971 2040.13 762.858 2077.94 792.335C2093.48 803.848 2108.95 816.192 2123.2 827.373C2137.44 838.555 2160.39 856.209 2180.99 870.502L2180.78 872.784C2160.89 857.93 2141.04 842.662 2121.84 827.663Z" fill="#E5FAFF"/><path d="M2128.28 813.898C2114.08 802.301 2098.59 790.166 2083.03 778.86C2045.62 749.574 1989.18 721.864 1918.36 698.014C1776.9 653.263 1562.93 650.638 1437.7 673.554C1343.42 690.515 1262.43 713.253 1197.83 740.896L1192.98 742.95C1134.27 774.594 1048.7 798.954 943.457 813.984C910.246 818.016 873.631 819.935 835.15 819.662C729.526 818.06 637.866 795.383 547.278 747.274C490.826 718.085 439.905 686.697 390.883 656.326C370.142 643.485 348.122 630.104 328.06 617.118C318.019 610.728 308.018 603.924 299.296 597.659C290.574 591.394 286.291 587.432 279.449 582.391C241.637 553.078 202.584 522.811 111.251 503.723C47.4128 491.147 -20.601 482.756 -87.9731 479.142C-155.345 475.529 -220.427 476.783 -278.61 482.814L-278.492 481.57C-220.391 475.571 -155.481 474.292 -88.2671 477.82C-21.0527 481.348 46.8565 489.599 110.748 502.001C203.321 522.044 243.014 552.58 280.788 582.308C287.629 587.349 294.471 592.39 300.654 597.368C309.188 603.938 318.792 610.435 329.418 616.827C351.458 630.001 372.819 643.319 392.241 656.036C441.263 686.407 492.184 717.794 547.996 746.714C640.582 794.802 728.305 816.898 832.61 818.376C870.734 818.774 906.956 816.879 939.579 812.781C1044.38 797.849 1129.51 773.581 1187.75 742.037L1192.6 739.983C1257.79 712.344 1338.96 689.502 1433.16 672.288C1559.75 649.083 1775.69 651.894 1918.44 697.184C1989.71 721.205 2046.58 749.093 2084.39 778.569C2099.93 790.083 2115.4 802.426 2129.64 813.607C2143.89 824.789 2166.83 842.443 2187.44 856.736L2187.22 859.018C2167.34 844.165 2147.49 828.896 2128.28 813.898Z" fill="#E5FAFF"/><path d="M2134.73 800.136C2120.53 788.54 2105.04 776.404 2089.48 765.098C2052.07 735.812 1995.63 708.102 1924.81 684.252C1783.35 639.501 1569.38 636.877 1444.15 659.792C1349.87 676.753 1268.88 699.491 1204.28 727.135L1199.43 729.188C1140.72 760.832 1055.15 785.192 949.906 800.222C916.695 804.254 880.081 806.174 841.599 805.901C735.975 804.298 644.315 781.621 553.727 733.512C497.276 704.323 446.354 672.936 397.332 642.564C376.591 629.723 354.571 616.342 334.509 603.356C324.468 596.966 314.467 590.162 305.745 583.897C297.023 577.632 292.74 573.67 285.898 568.629C248.086 539.316 209.033 509.049 117.7 489.961C53.862 477.385 -14.1518 468.994 -81.5239 465.381C-148.896 461.768 -213.978 463.021 -272.16 469.053L-272.043 467.808C-213.942 461.81 -149.032 460.53 -81.8179 464.058C-14.6035 467.586 53.3057 475.837 117.197 488.239C209.771 508.282 249.463 538.818 287.237 568.546C294.079 573.587 300.92 578.628 307.103 583.607C315.637 590.176 325.242 596.674 335.867 603.066C357.907 616.239 379.268 629.557 398.69 642.274C447.712 672.645 498.634 704.033 554.445 732.952C647.031 781.04 734.754 803.137 839.059 804.615C877.183 805.012 913.405 803.117 946.028 799.019C1050.83 784.087 1135.96 759.82 1194.2 728.275L1199.05 726.222C1264.24 698.582 1345.41 675.74 1439.61 658.527C1566.2 635.321 1782.14 638.132 1924.89 683.422C1996.16 707.443 2053.02 735.331 2090.83 764.808C2106.38 776.321 2121.84 788.664 2136.09 799.846C2150.33 811.027 2173.28 828.681 2193.89 842.975L2193.67 845.256C2173.78 830.403 2153.94 815.135 2134.73 800.136Z" fill="#E5FAFF"/><path d="M2141.18 786.374C2126.98 774.778 2111.49 762.642 2095.93 751.336C2058.51 722.051 2002.08 694.341 1931.26 670.49C1789.79 625.739 1575.83 623.115 1450.59 646.03C1356.32 662.992 1275.33 685.73 1210.73 713.373L1205.88 715.426C1147.17 747.071 1061.6 771.43 956.356 786.461C923.144 790.492 886.53 792.412 848.048 792.139C742.424 790.537 650.765 767.859 560.176 719.75C503.725 690.561 452.803 659.174 403.781 628.803C383.04 615.961 361.02 602.581 340.958 589.594C330.918 583.205 320.916 576.4 312.194 570.135C303.472 563.87 299.189 559.908 292.348 554.867C254.535 525.555 215.482 495.288 124.149 476.199C60.3113 463.624 -7.70259 455.232 -75.0747 451.619C-142.447 448.006 -207.529 449.259 -265.711 455.291L-265.594 454.046C-207.493 448.048 -142.583 446.768 -75.3686 450.296C-8.15428 453.824 59.7549 462.076 123.646 474.477C216.22 494.52 255.913 525.057 293.686 554.784C300.528 559.825 307.37 564.866 313.552 569.845C322.086 576.415 331.691 582.912 342.316 589.304C364.356 602.477 385.717 615.796 405.139 628.512C454.161 658.883 505.083 690.271 560.894 719.19C653.481 767.279 741.203 789.375 845.509 790.853C883.632 791.25 919.854 789.355 952.478 785.257C1057.28 770.325 1142.41 746.058 1200.65 714.513L1205.5 712.46C1270.69 684.82 1351.86 661.979 1446.06 644.765C1572.65 621.559 1788.59 624.37 1931.34 669.661C2002.61 693.682 2059.47 721.569 2097.28 751.046C2112.83 762.559 2128.29 774.903 2142.54 786.084C2156.78 797.266 2179.73 814.919 2200.33 829.213L2200.12 831.495C2180.23 816.641 2160.39 801.373 2141.18 786.374Z" fill="#E5FAFF"/><path d="M2147.63 772.609C2133.42 761.012 2117.94 748.877 2102.38 737.571C2064.96 708.285 2008.52 680.575 1937.71 656.725C1796.24 611.974 1582.28 609.349 1457.04 632.265C1362.77 649.226 1281.78 671.964 1217.18 699.607L1212.33 701.661C1153.62 733.305 1068.05 757.665 962.805 772.695C929.594 776.727 892.979 778.646 854.497 778.373C748.873 776.771 657.214 754.094 566.625 705.985C510.174 676.796 459.252 645.408 410.23 615.037C389.49 602.196 367.469 588.815 347.407 575.829C337.367 569.439 327.365 562.635 318.643 556.37C309.921 550.105 305.639 546.142 298.797 541.101C260.984 511.789 221.931 481.522 130.598 462.433C66.7605 449.858 -1.25337 441.467 -68.6255 437.853C-135.998 434.24 -201.08 435.494 -259.262 441.525L-259.144 440.281C-201.044 434.282 -136.134 433.003 -68.9194 436.531C-1.70506 440.059 66.2041 448.31 130.096 460.712C222.669 480.755 262.362 511.291 300.135 541.019C306.977 546.06 313.819 551.101 320.001 556.079C328.536 562.649 338.14 569.146 348.765 575.538C370.805 588.712 392.166 602.03 411.588 614.747C460.61 645.118 511.532 676.505 567.344 705.425C659.93 753.513 747.653 775.609 851.958 777.087C890.081 777.485 926.303 775.59 958.927 771.492C1063.73 756.56 1148.86 732.292 1207.09 700.748L1211.95 698.694C1277.14 671.055 1358.31 648.213 1452.51 630.999C1579.1 607.794 1795.04 610.605 1937.79 655.895C2009.06 679.916 2065.92 707.804 2103.73 737.28C2119.28 748.794 2134.74 761.137 2148.99 772.318C2163.23 783.5 2186.18 801.154 2206.78 815.447L2206.57 817.729C2186.68 802.876 2166.84 787.607 2147.63 772.609Z" fill="#E5FAFF"/><path d="M2154.08 758.847C2139.87 747.251 2124.39 735.115 2108.82 723.809C2071.41 694.523 2014.97 666.813 1944.16 642.963C1802.69 598.212 1588.73 595.588 1463.49 618.503C1369.22 635.464 1288.23 658.202 1223.63 685.846L1218.78 687.899C1160.07 719.543 1074.5 743.903 969.254 758.933C936.043 762.965 899.428 764.885 860.947 764.612C755.322 763.009 663.663 740.332 573.075 692.223C516.623 663.034 465.702 631.646 416.68 601.275C395.939 588.434 373.919 575.053 353.857 562.067C343.816 555.677 333.814 548.873 325.093 542.608C316.371 536.343 312.088 532.381 305.246 527.34C267.434 498.027 228.381 467.76 137.048 448.672C73.2097 436.096 5.19585 427.705 -62.1763 424.092C-129.548 420.479 -194.631 421.732 -252.813 427.764L-252.695 426.519C-194.594 420.521 -129.685 419.241 -62.4702 422.769C4.74416 426.297 72.6533 434.548 136.545 446.95C229.118 466.993 268.811 497.529 306.584 527.257C313.426 532.298 320.268 537.339 326.45 542.318C334.985 548.887 344.589 555.385 355.215 561.777C377.255 574.95 398.616 588.268 418.038 600.985C467.06 631.356 517.981 662.744 573.793 691.663C666.379 739.751 754.102 761.847 858.407 763.325C896.531 763.723 932.753 761.828 965.376 757.73C1070.18 742.798 1155.31 718.531 1213.54 686.986L1218.39 684.933C1283.59 657.293 1364.76 634.451 1458.96 617.238C1585.55 594.032 1801.49 596.843 1944.24 642.133C2015.51 666.154 2072.37 694.042 2110.18 723.519C2125.73 735.032 2141.19 747.375 2155.44 758.557C2169.68 769.738 2192.63 787.392 2213.23 801.685L2213.02 803.967C2193.13 789.114 2173.29 773.846 2154.08 758.847Z" fill="#E5FAFF"/><path d="M2160.53 745.081C2146.32 733.485 2130.84 721.349 2115.27 710.043C2077.86 680.758 2021.42 653.048 1950.61 629.197C1809.14 584.446 1595.18 581.822 1469.94 604.738C1375.67 621.699 1294.68 644.437 1230.08 672.08L1225.23 674.133C1166.52 705.778 1080.95 730.137 975.703 745.168C942.492 749.199 905.877 751.119 867.396 750.846C761.772 749.244 670.112 726.566 579.524 678.457C523.073 649.268 472.151 617.881 423.129 587.51C402.388 574.668 380.368 561.288 360.306 548.301C350.265 541.912 340.264 535.107 331.542 528.842C322.82 522.577 318.537 518.615 311.695 513.574C273.883 484.262 234.83 453.995 143.497 434.906C79.6589 422.331 11.6451 413.939 -55.727 410.326C-123.099 406.713 -188.181 407.966 -246.364 413.998L-246.246 412.753C-188.145 406.755 -123.235 405.475 -56.021 409.003C11.1934 412.531 79.1026 420.783 142.994 433.184C235.568 453.227 275.26 483.764 313.034 513.491C319.875 518.532 326.717 523.573 332.9 528.552C341.434 535.122 351.039 541.619 361.664 548.011C383.704 561.184 405.065 574.503 424.487 587.219C473.509 617.59 524.431 648.978 580.242 677.897C672.828 725.986 760.551 748.082 864.856 749.56C902.98 749.957 939.202 748.062 971.825 743.964C1076.63 729.032 1161.76 704.765 1219.99 673.22L1224.84 671.167C1290.04 643.527 1371.21 620.686 1465.41 603.472C1592 580.266 1807.94 583.077 1950.69 628.368C2021.96 652.389 2078.82 680.276 2116.63 709.753C2132.18 721.266 2147.64 733.61 2161.89 744.791C2176.13 755.973 2199.08 773.626 2219.68 787.92L2219.47 790.202C2199.58 775.348 2179.74 760.08 2160.53 745.081Z" fill="#E5FAFF"/><path d="M2166.98 731.32C2152.77 719.723 2137.29 707.588 2121.72 696.282C2084.31 666.996 2027.87 639.286 1957.06 615.436C1815.59 570.685 1601.63 568.06 1476.39 590.976C1382.12 607.937 1301.13 630.675 1236.53 658.318L1231.68 660.372C1172.97 692.016 1087.4 716.376 982.152 731.406C948.941 735.438 912.327 737.357 873.845 737.084C768.221 735.482 676.562 712.805 585.973 664.696C529.522 635.507 478.6 604.119 429.578 573.748C408.837 560.907 386.817 547.526 366.755 534.54C356.714 528.15 346.713 521.346 337.991 515.081C329.269 508.816 324.986 504.853 318.145 499.812C280.332 470.5 241.279 440.233 149.946 421.144C86.1081 408.569 18.0943 400.178 -49.2778 396.564C-116.65 392.951 -181.732 394.205 -239.914 400.236L-239.797 398.992C-181.696 392.993 -116.786 391.714 -49.5718 395.242C17.6426 398.77 85.5518 407.021 149.443 419.423C242.017 439.466 281.71 470.002 319.483 499.729C326.325 504.771 333.166 509.812 339.349 514.79C347.883 521.36 357.488 527.857 368.113 534.249C390.153 547.422 411.514 560.741 430.936 573.458C479.958 603.829 530.88 635.216 586.691 664.136C679.277 712.224 767 734.32 871.306 735.798C909.429 736.195 945.651 734.301 978.275 730.203C1083.08 715.271 1168.21 691.003 1226.44 659.459L1231.29 657.405C1296.49 629.765 1377.66 606.924 1471.85 589.71C1598.45 566.504 1814.39 569.316 1957.13 614.606C2028.41 638.627 2085.27 666.515 2123.08 695.991C2138.62 707.505 2154.09 719.848 2168.34 731.029C2182.58 742.211 2205.53 759.865 2226.13 774.158L2225.92 776.44C2206.03 761.587 2186.18 746.318 2166.98 731.32Z" fill="#E5FAFF"/><path d="M2173.42 717.554C2159.22 705.958 2143.73 693.822 2128.17 682.516C2090.76 653.23 2034.32 625.52 1963.5 601.67C1822.04 556.919 1608.07 554.295 1482.84 577.21C1388.56 594.171 1307.57 616.909 1242.97 644.553L1238.12 646.606C1179.41 678.25 1093.84 702.61 988.598 717.64C955.387 721.672 918.772 723.592 880.29 723.319C774.666 721.716 683.007 699.039 592.418 650.93C535.967 621.741 485.045 590.353 436.023 559.982C415.283 547.141 393.262 533.76 373.2 520.774C363.16 514.384 353.158 507.58 344.436 501.315C335.714 495.05 331.432 491.088 324.59 486.047C286.777 456.734 247.724 426.467 156.391 407.379C92.5534 394.803 24.5396 386.412 -42.8325 382.799C-110.205 379.186 -175.287 380.439 -233.469 386.471L-233.351 385.226C-175.251 379.228 -110.341 377.948 -43.1265 381.476C24.0879 385.004 91.9971 393.255 155.889 405.657C248.462 425.7 288.155 456.236 325.928 485.964C332.77 491.005 339.612 496.046 345.794 501.025C354.329 507.594 363.933 514.092 374.558 520.484C396.598 533.657 417.959 546.975 437.381 559.692C486.403 590.063 537.325 621.451 593.137 650.37C685.723 698.458 773.446 720.555 877.751 722.033C915.874 722.43 952.096 720.535 984.72 716.437C1089.52 701.505 1174.65 677.238 1232.89 645.693L1237.74 643.64C1302.93 616 1384.1 593.158 1478.3 575.945C1604.89 552.739 1820.84 555.55 1963.58 600.84C2034.85 624.861 2091.72 652.749 2129.53 682.226C2145.07 693.739 2160.54 706.082 2174.78 717.264C2189.03 728.445 2211.97 746.099 2232.58 760.392L2232.36 762.674C2212.48 747.821 2192.63 732.553 2173.42 717.554Z" fill="#E5FAFF"/><path d="M2179.87 703.792C2165.67 692.196 2150.18 680.06 2134.62 668.754C2097.21 639.469 2040.77 611.759 1969.95 587.908C1828.49 543.157 1614.52 540.533 1489.29 563.448C1395.01 580.41 1314.02 603.148 1249.42 630.791L1244.57 632.844C1185.86 664.489 1100.29 688.848 995.047 703.879C961.836 707.91 925.221 709.83 886.74 709.557C781.115 707.954 689.456 685.277 598.868 637.168C542.416 607.979 491.495 576.592 442.473 546.221C421.732 533.379 399.712 519.999 379.65 507.012C369.609 500.623 359.607 493.818 350.885 487.553C342.163 481.288 337.881 477.326 331.039 472.285C293.227 442.973 254.174 412.706 162.841 393.617C99.0027 381.042 30.9888 372.65 -36.3833 369.037C-103.755 365.424 -168.838 366.677 -227.02 372.709L-226.902 371.464C-168.801 365.466 -103.892 364.186 -36.6772 367.714C30.5371 371.242 98.4463 379.494 162.338 391.895C254.911 411.938 294.604 442.475 332.377 472.202C339.219 477.243 346.061 482.284 352.243 487.263C360.778 493.833 370.382 500.33 381.008 506.722C403.048 519.895 424.409 533.214 443.831 545.93C492.853 576.301 543.774 607.689 599.586 636.608C692.172 684.697 779.895 706.793 884.2 708.271C922.324 708.668 958.545 706.773 991.169 702.675C1095.97 687.743 1181.1 663.476 1239.34 631.931L1244.19 629.878C1309.38 602.238 1390.55 579.397 1484.75 562.183C1611.34 538.977 1827.28 541.788 1970.03 587.079C2041.3 611.1 2098.16 638.987 2135.98 668.464C2151.52 679.977 2166.99 692.321 2181.23 703.502C2195.48 714.684 2218.42 732.337 2239.03 746.631L2238.81 748.913C2218.93 734.059 2199.08 718.791 2179.87 703.792Z" fill="#E5FAFF"/><path d="M2186.32 690.027C2172.12 678.43 2156.63 666.295 2141.07 654.989C2103.66 625.703 2047.22 597.993 1976.4 574.143C1834.94 529.392 1620.97 526.767 1495.74 549.683C1401.46 566.644 1320.47 589.382 1255.87 617.025L1251.02 619.079C1192.31 650.723 1106.74 675.083 1001.5 690.113C968.285 694.145 931.67 696.064 893.189 695.791C787.565 694.189 695.905 671.512 605.317 623.403C548.866 594.214 497.944 562.826 448.922 532.455C428.181 519.614 406.161 506.233 386.099 493.247C376.058 486.857 366.057 480.053 357.335 473.788C348.613 467.523 344.33 463.56 337.488 458.519C299.676 429.207 260.623 398.94 169.29 379.851C105.452 367.276 37.438 358.885 -29.9341 355.271C-97.3062 351.658 -162.388 352.912 -220.571 358.943L-220.453 357.699C-162.352 351.7 -97.4424 350.421 -30.228 353.949C36.9863 357.477 104.896 365.728 168.787 378.13C261.361 398.173 301.053 428.709 338.827 458.437C345.668 463.478 352.51 468.519 358.693 473.497C367.227 480.067 376.831 486.564 387.457 492.956C409.497 506.13 430.858 519.448 450.28 532.165C499.302 562.536 550.223 593.923 606.035 622.843C698.621 670.931 786.344 693.027 890.649 694.505C928.773 694.902 964.995 693.008 997.618 688.91C1102.42 673.978 1187.55 649.71 1245.79 618.166L1250.64 616.112C1315.83 588.473 1397 565.631 1491.2 548.417C1617.79 525.211 1833.73 528.023 1976.48 573.313C2047.75 597.334 2104.61 625.222 2142.42 654.698C2157.97 666.212 2173.43 678.555 2187.68 689.736C2201.92 700.918 2224.87 718.572 2245.48 732.865L2245.26 735.147C2225.37 720.294 2205.53 705.025 2186.32 690.027Z" fill="#E5FAFF"/><path d="M2192.77 676.265C2178.57 664.669 2163.08 652.533 2147.52 641.227C2110.1 611.941 2053.66 584.231 1982.85 560.381C1841.38 515.63 1627.42 513.006 1502.18 535.921C1407.91 552.882 1326.92 575.62 1262.32 603.264L1257.47 605.317C1198.76 636.961 1113.19 661.321 1007.95 676.351C974.734 680.383 938.12 682.302 899.638 682.03C794.014 680.427 702.355 657.75 611.766 609.641C555.315 580.452 504.393 549.064 455.371 518.693C434.63 505.852 412.61 492.471 392.548 479.485C382.507 473.095 372.506 466.291 363.784 460.026C355.062 453.761 350.779 449.799 343.937 444.758C306.125 415.445 267.072 385.178 175.739 366.09C111.901 353.514 43.8873 345.123 -23.4849 341.51C-90.857 337.896 -155.939 339.15 -214.121 345.182L-214.004 343.937C-155.903 337.939 -90.9932 336.659 -23.7788 340.187C43.4356 343.715 111.345 351.966 175.236 364.368C267.81 384.411 307.502 414.947 345.276 444.675C352.118 449.716 358.959 454.757 365.142 459.736C373.676 466.305 383.281 472.803 393.906 479.195C415.946 492.368 437.307 505.686 456.729 518.403C505.751 548.774 556.673 580.162 612.484 609.081C705.07 657.169 792.793 679.265 897.099 680.743C935.222 681.141 971.444 679.246 1004.07 675.148C1108.87 660.216 1194 635.949 1252.23 604.404L1257.09 602.351C1322.28 574.711 1403.45 551.869 1497.65 534.656C1624.24 511.45 1840.18 514.261 1982.93 559.551C2054.2 583.572 2111.06 611.46 2148.87 640.936C2164.42 652.45 2179.88 664.793 2194.13 675.975C2208.37 687.156 2231.32 704.81 2251.92 719.103L2251.71 721.385C2231.82 706.532 2211.98 691.264 2192.77 676.265Z" fill="#E5FAFF"/><path d="M2199.22 662.499C2185.01 650.903 2169.53 638.767 2153.96 627.461C2116.55 598.176 2060.11 570.466 1989.3 546.615C1847.83 501.864 1633.87 499.24 1508.63 522.155C1414.36 539.117 1333.37 561.855 1268.77 589.498L1263.92 591.551C1205.21 623.196 1119.64 647.555 1014.39 662.586C981.183 666.617 944.569 668.537 906.087 668.264C800.463 666.662 708.804 643.984 618.215 595.875C561.764 566.686 510.842 535.299 461.82 504.928C441.08 492.086 419.059 478.706 398.997 465.719C388.957 459.33 378.955 452.525 370.233 446.26C361.511 439.995 357.229 436.033 350.387 430.992C312.574 401.68 273.521 371.413 182.188 352.324C118.35 339.749 50.3365 331.357 -17.0356 327.744C-84.4078 324.131 -149.49 325.384 -207.672 331.416L-207.555 330.171C-149.454 324.173 -84.5439 322.893 -17.3296 326.421C49.8848 329.949 117.794 338.201 181.686 350.602C274.259 370.645 313.952 401.182 351.725 430.909C358.567 435.95 365.409 440.991 371.591 445.97C380.125 452.54 389.73 459.037 400.355 465.429C422.395 478.602 443.756 491.921 463.178 504.637C512.2 535.008 563.122 566.396 618.933 595.315C711.52 643.404 799.242 665.5 903.548 666.978C941.671 667.375 977.893 665.48 1010.52 661.382C1115.32 646.45 1200.45 622.183 1258.68 590.638L1263.53 588.585C1328.73 560.945 1409.9 538.104 1504.1 520.89C1630.69 497.684 1846.63 500.495 1989.38 545.786C2060.65 569.807 2117.51 597.694 2155.32 627.171C2170.87 638.684 2186.33 651.028 2200.58 662.209C2214.82 673.391 2237.77 691.044 2258.37 705.338L2258.16 707.62C2238.27 692.766 2218.43 677.498 2199.22 662.499Z" fill="#E5FAFF"/><path d="M2205.67 648.738C2191.46 637.141 2175.98 625.006 2160.41 613.699C2123 584.414 2066.56 556.704 1995.75 532.854C1854.28 488.103 1640.32 485.478 1515.08 508.394C1420.81 525.355 1339.82 548.093 1275.22 575.736L1270.37 577.79C1211.66 609.434 1126.09 633.794 1020.84 648.824C987.633 652.856 951.018 654.775 912.536 654.502C806.912 652.9 715.253 630.223 624.664 582.114C568.213 552.925 517.292 521.537 468.27 491.166C447.529 478.325 425.508 464.944 405.447 451.958C395.406 445.568 385.404 438.764 376.682 432.499C367.96 426.234 363.678 422.271 356.836 417.23C319.023 387.918 279.97 357.651 188.637 338.562C124.8 325.987 56.7857 317.595 -10.5864 313.982C-77.9586 310.369 -143.041 311.623 -201.223 317.654L-201.105 316.41C-143.004 310.411 -78.0947 309.132 -10.8804 312.66C56.334 316.188 124.243 324.439 188.135 336.841C280.708 356.884 320.401 387.42 358.174 417.147C365.016 422.188 371.858 427.23 378.04 432.208C386.575 438.778 396.179 445.275 406.804 451.667C428.844 464.84 450.205 478.159 469.627 490.876C518.649 521.247 569.571 552.634 625.383 581.554C717.969 629.642 805.692 651.738 909.997 653.216C948.12 653.613 984.342 651.719 1016.97 647.621C1121.77 632.689 1206.9 608.421 1265.13 576.877L1269.98 574.823C1335.18 547.183 1416.35 524.342 1510.55 507.128C1637.14 483.922 1853.08 486.734 1995.83 532.024C2067.1 556.045 2123.96 583.933 2161.77 613.409C2177.32 624.923 2192.78 637.266 2207.03 648.447C2221.27 659.629 2244.22 677.283 2264.82 691.576L2264.61 693.858C2244.72 679.005 2224.88 663.736 2205.67 648.738Z" fill="#E5FAFF"/><path d="M2212.12 634.976C2197.91 623.38 2182.43 611.244 2166.86 599.938C2129.45 570.652 2073.01 542.942 2002.2 519.092C1860.73 474.341 1646.77 471.717 1521.53 494.632C1427.26 511.593 1346.27 534.331 1281.67 561.975L1276.82 564.028C1218.11 595.672 1132.54 620.032 1027.29 635.062C994.082 639.094 957.467 641.013 918.986 640.741C813.362 639.138 721.702 616.461 631.114 568.352C574.662 539.163 523.741 507.775 474.719 477.404C453.978 464.563 431.958 451.182 411.896 438.196C401.855 431.806 391.854 425.002 383.132 418.737C374.41 412.472 370.127 408.51 363.285 403.469C325.473 374.156 286.42 343.889 195.087 324.801C131.249 312.225 63.2349 303.834 -4.1372 300.221C-71.5093 296.607 -136.592 297.861 -194.774 303.892L-194.656 302.648C-136.555 296.649 -71.6455 295.37 -4.43114 298.898C62.7832 302.426 130.692 310.677 194.584 323.079C287.157 343.122 326.85 373.658 364.624 403.386C371.465 408.427 378.307 413.468 384.489 418.447C393.024 425.016 402.628 431.514 413.254 437.905C435.294 451.079 456.655 464.397 476.077 477.114C525.099 507.485 576.02 538.873 631.832 567.792C724.418 615.88 812.141 637.976 916.446 639.454C954.57 639.852 990.792 637.957 1023.42 633.859C1128.22 618.927 1213.35 594.66 1271.58 563.115L1276.43 561.062C1341.63 533.422 1422.8 510.58 1517 493.366C1643.59 470.161 1859.53 472.972 2002.28 518.262C2073.55 542.283 2130.41 570.171 2168.22 599.647C2183.77 611.161 2199.23 623.504 2213.48 634.686C2227.72 645.867 2250.67 663.521 2271.27 677.814L2271.06 680.096C2251.17 665.243 2231.33 649.974 2212.12 634.976Z" fill="#E5FAFF"/><path d="M2218.56 621.21C2204.36 609.614 2188.87 597.478 2173.31 586.172C2135.9 556.887 2079.46 529.177 2008.64 505.326C1867.18 460.575 1653.21 457.951 1527.98 480.866C1433.7 497.827 1352.71 520.566 1288.11 548.209L1283.26 550.262C1224.55 581.907 1138.98 606.266 1033.74 621.297C1000.53 625.328 963.913 627.248 925.431 626.975C819.807 625.372 728.148 602.695 637.559 554.586C581.108 525.397 530.186 494.01 481.164 463.639C460.423 450.797 438.403 437.417 418.341 424.43C408.3 418.041 398.299 411.236 389.577 404.971C380.855 398.706 376.572 394.744 369.73 389.703C331.918 360.39 292.865 330.124 201.532 311.035C137.694 298.46 69.6802 290.068 2.30811 286.455C-65.064 282.842 -130.146 284.095 -188.328 290.127L-188.211 288.882C-130.11 282.884 -65.2002 281.604 2.01417 285.132C69.2285 288.66 137.138 296.912 201.029 309.313C293.603 329.356 333.295 359.893 371.069 389.62C377.911 394.661 384.752 399.702 390.935 404.681C399.469 411.251 409.074 417.748 419.699 424.14C441.739 437.313 463.1 450.632 482.522 463.348C531.544 493.719 582.466 525.107 638.277 554.026C730.863 602.114 818.586 624.211 922.891 625.689C961.015 626.086 997.237 624.191 1029.86 620.093C1134.66 605.161 1219.79 580.894 1278.03 549.349L1282.88 547.296C1348.07 519.656 1429.24 496.815 1523.44 479.601C1650.03 456.395 1865.98 459.206 2008.72 504.497C2079.99 528.518 2136.86 556.405 2174.67 585.882C2190.21 597.395 2205.68 609.738 2219.92 620.92C2234.17 632.101 2257.11 649.755 2277.72 664.049L2277.5 666.331C2257.62 651.477 2237.77 636.209 2218.56 621.21Z" fill="#E5FAFF"/><path d="M2225.01 607.449C2210.81 595.852 2195.32 583.716 2179.76 572.41C2142.35 543.125 2085.91 515.415 2015.09 491.565C1873.63 446.814 1659.66 444.189 1534.43 467.105C1440.15 484.066 1359.16 506.804 1294.56 534.447L1289.71 536.501C1231 568.145 1145.43 592.505 1040.19 607.535C1006.98 611.566 970.362 613.486 931.88 613.213C826.256 611.611 734.597 588.933 644.008 540.825C587.557 511.636 536.635 480.248 487.613 449.877C466.873 437.036 444.852 423.655 424.79 410.668C414.75 404.279 404.748 397.475 396.026 391.21C387.304 384.945 383.021 380.982 376.18 375.941C338.367 346.629 299.314 316.362 207.981 297.273C144.143 284.698 76.1294 276.306 8.75733 272.693C-58.6148 269.08 -123.697 270.334 -181.879 276.365L-181.762 275.121C-123.661 269.122 -58.751 267.843 8.46339 271.371C75.6778 274.899 143.587 283.15 207.478 295.552C300.052 315.594 339.745 346.131 377.518 375.858C384.36 380.899 391.202 385.94 397.384 390.919C405.918 397.489 415.523 403.986 426.148 410.378C448.188 423.551 469.549 436.87 488.971 449.587C537.993 479.958 588.915 511.345 644.726 540.265C737.313 588.353 825.035 610.449 929.341 611.927C967.464 612.324 1003.69 610.43 1036.31 606.332C1141.11 591.399 1226.24 567.132 1284.48 535.588L1289.33 533.534C1354.52 505.894 1435.69 483.053 1529.89 465.839C1656.48 442.633 1872.43 445.444 2015.17 490.735C2086.44 514.756 2143.31 542.643 2181.12 572.12C2196.66 583.634 2212.13 595.977 2226.37 607.158C2240.62 618.34 2263.56 635.994 2284.17 650.287L2283.95 652.569C2264.07 637.715 2244.22 622.447 2225.01 607.449Z" fill="#E5FAFF"/><path d="M2231.46 593.683C2217.26 582.087 2201.77 569.951 2186.21 558.645C2148.8 529.359 2092.36 501.649 2021.54 477.799C1880.08 433.048 1666.11 430.424 1540.88 453.339C1446.6 470.3 1365.61 493.038 1301.01 520.682L1296.16 522.735C1237.45 554.379 1151.88 578.739 1046.64 593.769C1013.43 597.801 976.811 599.72 938.329 599.448C832.705 597.845 741.046 575.168 650.457 527.059C594.006 497.87 543.084 466.482 494.063 436.111C473.322 423.27 451.301 409.889 431.24 396.903C421.199 390.513 411.197 383.709 402.475 377.444C393.753 371.179 389.471 367.217 382.629 362.176C344.816 332.863 305.763 302.596 214.43 283.508C150.593 270.932 82.5787 262.541 15.2065 258.928C-52.1656 255.314 -117.248 256.568 -175.43 262.6L-175.312 261.355C-117.212 255.357 -52.3017 254.077 14.9126 257.605C82.127 261.133 150.036 269.384 213.928 281.786C306.501 301.829 346.194 332.365 383.967 362.093C390.809 367.134 397.651 372.175 403.833 377.154C412.368 383.723 421.972 390.221 432.597 396.612C454.637 409.786 475.998 423.104 495.42 435.821C544.442 466.192 595.364 497.58 651.176 526.499C743.762 574.587 831.485 596.683 935.79 598.161C973.913 598.559 1010.14 596.664 1042.76 592.566C1147.56 577.634 1232.69 553.367 1290.93 521.822L1295.78 519.769C1360.97 492.129 1442.14 469.287 1536.34 452.074C1662.93 428.868 1878.87 431.679 2021.62 476.969C2092.89 500.99 2149.75 528.878 2187.57 558.354C2203.11 569.868 2218.58 582.211 2232.82 593.393C2247.07 604.574 2270.01 622.228 2290.62 636.521L2290.4 638.803C2270.52 623.95 2250.67 608.682 2231.46 593.683Z" fill="#E5FAFF"/><path d="M2237.91 579.921C2223.71 568.325 2208.22 556.189 2192.66 544.883C2155.25 515.597 2098.81 487.887 2027.99 464.037C1886.53 419.286 1672.56 416.662 1547.33 439.577C1453.05 456.538 1372.06 479.277 1307.46 506.92L1302.61 508.973C1243.9 540.618 1158.33 564.977 1053.09 580.008C1019.87 584.039 983.26 585.959 944.779 585.686C839.155 584.083 747.495 561.406 656.907 513.297C600.455 484.108 549.534 452.721 500.512 422.35C479.771 409.508 457.751 396.128 437.689 383.141C427.648 376.752 417.646 369.947 408.925 363.682C400.203 357.417 395.92 353.455 389.078 348.414C351.266 319.101 312.213 288.835 220.88 269.746C157.042 257.171 89.0279 248.779 21.6558 245.166C-45.7164 241.553 -110.799 242.806 -168.981 248.838L-168.863 247.593C-110.762 241.595 -45.8525 240.315 21.3618 243.843C88.5762 247.371 156.485 255.622 220.377 268.024C312.95 288.067 352.643 318.604 390.416 348.331C397.258 353.372 404.1 358.413 410.282 363.392C418.817 369.962 428.421 376.459 439.047 382.851C461.087 396.024 482.448 409.342 501.87 422.059C550.892 452.43 601.813 483.818 657.625 512.737C750.211 560.825 837.934 582.922 942.239 584.4C980.363 584.797 1016.58 582.902 1049.21 578.804C1154.01 563.872 1239.14 539.605 1297.38 508.06L1302.23 506.007C1367.42 478.367 1448.59 455.526 1542.79 438.312C1669.38 415.106 1885.32 417.917 2028.07 463.207C2099.34 487.228 2156.2 515.116 2194.01 544.593C2209.56 556.106 2225.02 568.449 2239.27 579.631C2253.51 590.812 2276.46 608.466 2297.07 622.76L2296.85 625.041C2276.96 610.188 2257.12 594.92 2237.91 579.921Z" fill="#E5FAFF"/><path d="M2244.36 566.156C2230.15 554.559 2214.67 542.423 2199.11 531.117C2161.69 501.832 2105.25 474.122 2034.44 450.272C1892.97 405.521 1679.01 402.896 1553.77 425.812C1459.5 442.773 1378.51 465.511 1313.91 493.154L1309.06 495.208C1250.35 526.852 1164.78 551.212 1059.54 566.242C1026.32 570.273 989.709 572.193 951.228 571.92C845.604 570.318 753.944 547.64 663.356 499.532C606.905 470.343 555.983 438.955 506.961 408.584C486.22 395.743 464.2 382.362 444.138 369.376C434.097 362.986 424.096 356.182 415.374 349.917C406.652 343.652 402.369 339.689 395.527 334.648C357.715 305.336 318.662 275.069 227.329 255.98C163.491 243.405 95.4771 235.013 28.105 231.4C-39.2671 227.787 -104.349 229.041 -162.531 235.072L-162.414 233.828C-104.313 227.829 -39.4033 226.55 27.811 230.078C95.0254 233.606 162.935 241.857 226.826 254.259C319.4 274.301 359.092 304.838 396.866 334.565C403.707 339.606 410.549 344.648 416.732 349.626C425.266 356.196 434.871 362.693 445.496 369.085C467.536 382.258 488.897 395.577 508.319 408.294C557.341 438.665 608.263 470.052 664.074 498.972C756.66 547.06 844.383 569.156 948.688 570.634C986.812 571.031 1023.03 569.137 1055.66 565.039C1160.46 550.107 1245.59 525.839 1303.82 494.295L1308.68 492.241C1373.87 464.601 1455.04 441.76 1549.24 424.546C1675.83 401.34 1891.77 404.152 2034.52 449.442C2105.79 473.463 2162.65 501.35 2200.46 530.827C2216.01 542.341 2231.47 554.684 2245.72 565.865C2259.96 577.047 2282.91 594.701 2303.51 608.994L2303.3 611.276C2283.41 596.422 2263.57 581.154 2244.36 566.156Z" fill="#E5FAFF"/><path d="M2250.81 552.394C2236.6 540.798 2221.12 528.662 2205.55 517.356C2168.14 488.07 2111.7 460.36 2040.89 436.51C1899.42 391.759 1685.46 389.135 1560.22 412.05C1465.95 429.011 1384.96 451.749 1320.36 479.392L1315.51 481.446C1256.8 513.09 1171.23 537.45 1065.98 552.48C1032.77 556.512 996.159 558.431 957.677 558.159C852.053 556.556 760.394 533.879 669.805 485.77C613.354 456.581 562.432 425.193 513.41 394.822C492.669 381.981 470.649 368.6 450.587 355.614C440.546 349.224 430.545 342.42 421.823 336.155C413.101 329.89 408.818 325.928 401.977 320.887C364.164 291.574 325.111 261.307 233.778 242.219C169.94 229.643 101.926 221.252 34.5542 217.639C-32.8179 214.025 -97.9001 215.279 -156.082 221.31L-155.965 220.066C-97.8639 214.067 -32.9541 212.788 34.2603 216.316C101.475 219.844 169.384 228.095 233.275 240.497C325.849 260.54 365.542 291.076 403.315 320.804C410.157 325.845 416.998 330.886 423.181 335.865C431.715 342.434 441.32 348.932 451.945 355.323C473.985 368.497 495.346 381.815 514.768 394.532C563.79 424.903 614.712 456.291 670.523 485.21C763.11 533.298 850.832 555.394 955.138 556.872C993.261 557.27 1029.48 555.375 1062.11 551.277C1166.91 536.345 1252.04 512.078 1310.27 480.533L1315.12 478.479C1380.32 450.84 1461.49 427.998 1555.69 410.784C1682.28 387.579 1898.22 390.39 2040.97 435.68C2112.24 459.701 2169.1 487.589 2206.91 517.065C2222.46 528.579 2237.92 540.922 2252.17 552.104C2266.41 563.285 2289.36 580.939 2309.96 595.232L2309.75 597.514C2289.86 582.661 2270.02 567.392 2250.81 552.394Z" fill="#E5FAFF"/><path d="M2257.26 538.632C2243.05 527.036 2227.57 514.9 2212 503.594C2174.59 474.308 2118.15 446.598 2047.34 422.748C1905.87 377.997 1691.91 375.373 1566.67 398.288C1472.4 415.249 1391.41 437.987 1326.81 465.631L1321.96 467.684C1263.25 499.328 1177.68 523.688 1072.43 538.718C1039.22 542.75 1002.61 544.67 964.126 544.397C858.502 542.794 766.843 520.117 676.254 472.008C619.803 442.819 568.881 411.432 519.859 381.061C499.119 368.219 477.098 354.839 457.036 341.852C446.996 335.463 436.994 328.658 428.272 322.393C419.55 316.128 415.268 312.166 408.426 307.125C370.613 277.812 331.56 247.546 240.227 228.457C176.389 215.881 108.376 207.49 41.0034 203.877C-26.3687 200.264 -91.4509 201.517 -149.633 207.549L-149.516 206.304C-91.4146 200.306 -26.5049 199.026 40.7095 202.554C107.924 206.082 175.833 214.333 239.725 226.735C332.298 246.778 371.991 277.315 409.764 307.042C416.606 312.083 423.448 317.124 429.63 322.103C438.165 328.672 447.769 335.17 458.394 341.562C480.434 354.735 501.795 368.053 521.217 380.77C570.239 411.141 621.161 442.529 676.973 471.448C769.559 519.536 857.282 541.633 961.587 543.111C999.71 543.508 1035.93 541.613 1068.56 537.515C1173.36 522.583 1258.49 498.316 1316.72 466.771L1321.57 464.718C1386.77 437.078 1467.94 414.237 1562.14 397.023C1688.73 373.817 1904.67 376.628 2047.42 421.918C2118.69 445.939 2175.55 473.827 2213.36 503.304C2228.91 514.817 2244.37 527.16 2258.62 538.342C2272.86 549.523 2295.81 567.177 2316.41 581.471L2316.2 583.752C2296.31 568.899 2276.47 553.631 2257.26 538.632Z" fill="#E5FAFF"/><path d="M2263.71 524.867C2249.5 513.27 2234.02 501.134 2218.45 489.828C2181.04 460.543 2124.6 432.833 2053.79 408.982C1912.32 364.232 1698.36 361.607 1573.12 384.523C1478.85 401.484 1397.86 424.222 1333.26 451.865L1328.41 453.918C1269.7 485.563 1184.13 509.923 1078.88 524.953C1045.67 528.984 1009.06 530.904 970.576 530.631C864.951 529.029 773.292 506.351 682.704 458.243C626.252 429.054 575.331 397.666 526.309 367.295C505.568 354.454 483.547 341.073 463.486 328.086C453.445 321.697 443.443 314.893 434.721 308.628C425.999 302.363 421.717 298.4 414.875 293.359C377.062 264.047 338.009 233.78 246.676 214.691C182.839 202.116 114.825 193.724 47.4526 190.111C-19.9195 186.498 -85.0017 187.752 -143.184 193.783L-143.066 192.539C-84.9654 186.54 -20.0557 185.261 47.1587 188.789C114.373 192.317 182.282 200.568 246.174 212.97C338.747 233.012 378.44 263.549 416.213 293.276C423.055 298.317 429.897 303.358 436.079 308.337C444.614 314.907 454.218 321.404 464.843 327.796C486.883 340.969 508.245 354.288 527.667 367.005C576.688 397.376 627.61 428.763 683.422 457.682C776.008 505.771 863.731 527.867 968.036 529.345C1006.16 529.742 1042.38 527.848 1075.01 523.75C1179.81 508.817 1264.94 484.55 1323.17 453.006L1328.02 450.952C1393.22 423.312 1474.39 400.471 1568.58 383.257C1695.18 360.051 1911.12 362.862 2053.87 408.153C2125.14 432.174 2182 460.061 2219.81 489.538C2235.36 501.052 2250.82 513.395 2265.07 524.576C2279.31 535.758 2302.26 553.412 2322.86 567.705L2322.65 569.987C2302.76 555.133 2282.91 539.865 2263.71 524.867Z" fill="#E5FAFF"/><path d="M2270.15 511.105C2255.95 499.508 2240.46 487.373 2224.9 476.067C2187.49 446.781 2131.05 419.071 2060.23 395.221C1918.77 350.47 1704.8 347.846 1579.57 370.761C1485.29 387.722 1404.3 410.46 1339.7 438.103L1334.85 440.157C1276.14 471.801 1190.57 496.161 1085.33 511.191C1052.12 515.223 1015.5 517.142 977.021 516.869C871.397 515.267 779.737 492.59 689.149 444.481C632.698 415.292 581.776 383.904 532.754 353.533C512.013 340.692 489.993 327.311 469.931 314.325C459.89 307.935 449.889 301.131 441.167 294.866C432.445 288.601 428.162 284.639 421.32 279.598C383.508 250.285 344.455 220.018 253.122 200.93C189.284 188.354 121.27 179.963 53.898 176.35C-13.4742 172.736 -78.5563 173.99 -136.739 180.021L-136.621 178.777C-78.5201 172.778 -13.6103 171.499 53.604 175.027C120.818 178.555 188.728 186.806 252.619 199.208C345.193 219.251 384.885 249.787 422.659 279.515C429.5 284.556 436.342 289.597 442.525 294.575C451.059 301.145 460.664 307.642 471.289 314.034C493.329 327.208 514.69 340.526 534.112 353.243C583.134 383.614 634.056 415.001 689.867 443.921C782.453 492.009 870.176 514.105 974.481 515.583C1012.6 515.981 1048.83 514.086 1081.45 509.988C1186.25 495.056 1271.38 470.789 1329.62 439.244L1334.47 437.19C1399.66 409.551 1480.83 386.709 1575.03 369.495C1701.62 346.29 1917.57 349.101 2060.31 394.391C2131.58 418.412 2188.45 446.3 2226.26 475.776C2241.8 487.29 2257.27 499.633 2271.51 510.815C2285.76 521.996 2308.7 539.65 2329.31 553.943L2329.09 556.225C2309.21 541.372 2289.36 526.103 2270.15 511.105Z" fill="#E5FAFF"/><path d="M2276.61 497.339C2262.4 485.743 2246.92 473.607 2231.35 462.301C2193.94 433.015 2137.5 405.305 2066.69 381.455C1925.22 336.704 1711.26 334.08 1586.02 356.995C1491.75 373.956 1410.76 396.694 1346.16 424.338L1341.31 426.391C1282.6 458.035 1197.03 482.395 1091.78 497.426C1058.57 501.457 1021.96 503.377 983.474 503.104C877.85 501.501 786.19 478.824 695.602 430.715C639.151 401.526 588.229 370.139 539.207 339.768C518.466 326.926 496.446 313.546 476.384 300.559C466.343 294.17 456.342 287.365 447.62 281.1C438.898 274.835 434.615 270.873 427.773 265.832C389.961 236.519 350.908 206.253 259.575 187.164C195.737 174.589 127.723 166.197 60.3511 162.584C-7.02105 158.971 -72.1032 160.224 -130.285 166.256L-130.168 165.011C-72.067 159.013 -7.15721 157.733 60.0571 161.261C127.272 164.789 195.181 173.04 259.072 185.442C351.646 205.485 391.338 236.022 429.112 265.749C435.954 270.79 442.795 275.831 448.978 280.81C457.512 287.379 467.117 293.877 477.742 300.269C499.782 313.442 521.143 326.76 540.565 339.477C589.587 369.848 640.509 401.236 696.32 430.155C788.906 478.243 876.629 500.34 980.934 501.818C1019.06 502.215 1055.28 500.32 1087.9 496.222C1192.71 481.29 1277.83 457.023 1336.07 425.478L1340.92 423.425C1406.12 395.785 1487.29 372.944 1581.48 355.73C1708.08 332.524 1924.02 335.335 2066.76 380.625C2138.04 404.646 2194.9 432.534 2232.71 462.011C2248.25 473.524 2263.72 485.867 2277.96 497.049C2292.21 508.23 2315.16 525.884 2335.76 540.178L2335.55 542.459C2315.66 527.606 2295.81 512.338 2276.61 497.339Z" fill="#E5FAFF"/><path d="M2283.06 483.577C2268.85 471.981 2253.36 459.845 2237.8 448.539C2200.39 419.254 2143.95 391.544 2073.13 367.693C1931.67 322.942 1717.71 320.318 1592.47 343.234C1498.19 360.195 1417.21 382.933 1352.61 410.576L1347.76 412.629C1289.04 444.274 1203.48 468.634 1098.23 483.664C1065.02 487.695 1028.4 489.615 989.923 489.342C884.299 487.74 792.64 465.062 702.051 416.953C645.6 387.764 594.678 356.377 545.656 326.006C524.915 313.165 502.895 299.784 482.833 286.797C472.793 280.408 462.791 273.603 454.069 267.338C445.347 261.073 441.064 257.111 434.223 252.07C396.41 222.758 357.357 192.491 266.024 173.402C202.186 160.827 134.172 152.435 66.8003 148.822C-0.571834 145.209 -65.654 146.463 -123.836 152.494L-123.719 151.249C-65.6178 145.251 -0.707996 143.971 66.5064 147.5C133.721 151.028 201.63 159.279 265.521 171.68C358.095 191.723 397.788 222.26 435.561 251.987C442.403 257.028 449.245 262.069 455.427 267.048C463.961 273.618 473.566 280.115 484.191 286.507C506.231 299.68 527.592 312.999 547.014 325.716C596.036 356.087 646.958 387.474 702.769 416.393C795.356 464.482 883.078 486.578 987.384 488.056C1025.51 488.453 1061.73 486.559 1094.35 482.46C1199.16 467.528 1284.28 443.261 1342.52 411.716L1347.37 409.663C1412.56 382.023 1493.73 359.182 1587.93 341.968C1714.53 318.762 1930.47 321.573 2073.21 366.864C2144.49 390.885 2201.35 418.772 2239.16 448.249C2254.7 459.762 2270.17 472.106 2284.41 483.287C2298.66 494.469 2321.61 512.123 2342.21 526.416L2341.99 528.698C2322.11 513.844 2302.26 498.576 2283.06 483.577Z" fill="#E5FAFF"/><path d="M2289.5 469.812C2275.3 458.215 2259.81 446.08 2244.25 434.774C2206.83 405.488 2150.4 377.778 2079.58 353.928C1938.11 309.177 1724.15 306.553 1598.92 329.468C1504.64 346.429 1423.65 369.167 1359.05 396.81L1354.2 398.864C1295.49 430.508 1209.92 454.868 1104.68 469.898C1071.46 473.93 1034.85 475.849 996.368 475.577C890.744 473.974 799.085 451.297 708.497 403.188C652.045 373.999 601.124 342.611 552.102 312.24C531.361 299.399 509.34 286.018 489.279 273.032C479.238 266.642 469.236 259.838 460.514 253.573C451.792 247.308 447.51 243.346 440.668 238.305C402.855 208.992 363.802 178.725 272.469 159.637C208.632 147.061 140.618 138.67 73.2456 135.057C5.87348 131.443 -59.2087 132.697 -117.391 138.728L-117.273 137.484C-59.1725 131.485 5.73732 130.206 72.9517 133.734C140.166 137.262 208.075 145.513 271.967 157.915C364.54 177.958 404.233 208.494 442.006 238.222C448.848 243.263 455.69 248.304 461.872 253.283C470.407 259.852 480.011 266.35 490.636 272.741C512.676 285.915 534.037 299.233 553.459 311.95C602.481 342.321 653.403 373.708 709.215 402.628C801.801 450.716 889.524 472.812 993.829 474.29C1031.95 474.688 1068.17 472.793 1100.8 468.695C1205.6 453.763 1290.73 429.496 1348.97 397.951L1353.82 395.897C1419.01 368.258 1500.18 345.416 1594.38 328.202C1720.97 304.997 1936.91 307.808 2079.66 353.098C2150.93 377.119 2207.79 405.007 2245.6 434.483C2261.15 445.997 2276.61 458.34 2290.86 469.522C2305.1 480.703 2328.05 498.357 2348.66 512.65L2348.44 514.932C2328.55 500.079 2308.71 484.81 2289.5 469.812Z" fill="#E5FAFF"/><path d="M2295.95 456.05C2281.75 444.454 2266.26 432.318 2250.7 421.012C2213.29 391.726 2156.85 364.016 2086.03 340.166C1944.57 295.415 1730.6 292.791 1605.37 315.706C1511.09 332.667 1430.1 355.405 1365.51 383.049L1360.65 385.102C1301.94 416.746 1216.37 441.106 1111.13 456.136C1077.92 460.168 1041.3 462.088 1002.82 461.815C897.197 460.212 805.538 437.535 714.95 389.426C658.498 360.237 607.577 328.85 558.555 298.479C537.814 285.637 515.794 272.257 495.732 259.27C485.691 252.881 475.689 246.076 466.968 239.811C458.246 233.546 453.963 229.584 447.121 224.543C409.309 195.23 370.256 164.963 278.923 145.875C215.085 133.299 147.071 124.908 79.6987 121.295C12.3266 117.682 -52.7556 118.935 -110.938 124.967L-110.82 123.722C-52.7193 117.724 12.1904 116.444 79.4048 119.972C146.619 123.5 214.528 131.751 278.42 144.153C370.993 164.196 410.686 194.733 448.459 224.46C455.301 229.501 462.143 234.542 468.325 239.521C476.86 246.09 486.464 252.588 497.09 258.98C519.13 272.153 540.491 285.471 559.913 298.188C608.935 328.559 659.856 359.947 715.668 388.866C808.254 436.954 895.977 459.051 1000.28 460.529C1038.41 460.926 1074.63 459.031 1107.25 454.933C1212.05 440.001 1297.18 415.734 1355.42 384.189L1360.27 382.136C1425.46 354.496 1506.63 331.655 1600.83 314.441C1727.42 291.235 1943.37 294.046 2086.11 339.336C2157.38 363.357 2214.25 391.245 2252.06 420.722C2267.6 432.235 2283.07 444.578 2297.31 455.76C2311.56 466.941 2334.5 484.595 2355.11 498.889L2354.89 501.17C2335.01 486.317 2315.16 471.049 2295.95 456.05Z" fill="#E5FAFF"/><path d="M2302.4 442.285C2288.2 430.688 2272.71 418.552 2257.15 407.246C2219.74 377.961 2163.3 350.251 2092.48 326.4C1951.02 281.65 1737.05 279.025 1611.82 301.941C1517.54 318.902 1436.55 341.64 1371.95 369.283L1367.1 371.336C1308.39 402.981 1222.82 427.341 1117.58 442.371C1084.37 446.402 1047.75 448.322 1009.27 448.049C903.647 446.447 811.987 423.769 721.399 375.661C664.948 346.472 614.026 315.084 565.004 284.713C544.263 271.872 522.243 258.491 502.181 245.504C492.14 239.115 482.139 232.31 473.417 226.045C464.695 219.78 460.412 215.818 453.57 210.777C415.758 181.465 376.705 151.198 285.372 132.109C221.534 119.534 153.52 111.142 86.148 107.529C18.7758 103.916 -46.3063 105.17 -104.489 111.201L-104.371 109.956C-46.2701 103.958 18.6397 102.678 85.854 106.207C153.068 109.735 220.978 117.986 284.869 130.387C377.443 150.43 417.135 180.967 454.909 210.694C461.75 215.735 468.592 220.776 474.775 225.755C483.309 232.325 492.914 238.822 503.539 245.214C525.579 258.387 546.94 271.706 566.362 284.423C615.384 314.794 666.306 346.181 722.117 375.1C814.703 423.189 902.426 445.285 1006.73 446.763C1044.85 447.16 1081.08 445.266 1113.7 441.168C1218.5 426.235 1303.63 401.968 1361.87 370.424L1366.72 368.37C1431.91 340.73 1513.08 317.889 1607.28 300.675C1733.87 277.469 1949.82 280.28 2092.56 325.571C2163.83 349.592 2220.7 377.479 2258.51 406.956C2274.05 418.469 2289.52 430.813 2303.76 441.994C2318.01 453.176 2340.95 470.83 2361.56 485.123L2361.34 487.405C2341.46 472.551 2321.61 457.283 2302.4 442.285Z" fill="#E5FAFF"/><path d="M2308.85 428.523C2294.64 416.926 2279.16 404.791 2263.59 393.485C2226.18 364.199 2169.74 336.489 2098.93 312.639C1957.46 267.888 1743.5 265.263 1618.26 288.179C1523.99 305.14 1443 327.878 1378.4 355.521L1373.55 357.575C1314.84 389.219 1229.27 413.579 1124.02 428.609C1090.81 432.641 1054.2 434.56 1015.72 434.287C910.092 432.685 818.433 410.008 727.844 361.899C671.393 332.71 620.471 301.322 571.449 270.951C550.708 258.11 528.688 244.729 508.626 231.743C498.586 225.353 488.584 218.549 479.862 212.284C471.14 206.019 466.857 202.057 460.016 197.016C422.203 167.703 383.15 137.436 291.817 118.348C227.979 105.772 159.965 97.3806 92.5933 93.7675C25.2211 90.1543 -39.861 91.4079 -98.0432 97.4394L-97.9257 96.1948C-39.8248 90.1964 25.085 88.9168 92.2993 92.4448C159.514 95.9729 227.423 104.224 291.314 116.626C383.888 136.669 423.581 167.205 461.354 196.933C468.196 201.974 475.038 207.015 481.22 211.993C489.754 218.563 499.359 225.06 509.984 231.452C532.024 244.626 553.385 257.944 572.807 270.661C621.829 301.032 672.751 332.419 728.562 361.339C821.149 409.427 908.871 431.523 1013.18 433.001C1051.3 433.399 1087.52 431.504 1120.15 427.406C1224.95 412.474 1310.08 388.206 1368.31 356.662L1373.16 354.608C1438.36 326.969 1519.53 304.127 1613.73 286.913C1740.32 263.708 1956.26 266.519 2099.01 311.809C2170.28 335.83 2227.14 363.718 2264.95 393.194C2280.5 404.708 2295.96 417.051 2310.21 428.232C2324.45 439.414 2347.4 457.068 2368 471.361L2367.79 473.643C2347.9 458.79 2328.06 443.521 2308.85 428.523Z" fill="#E5FAFF"/><path d="M2315.3 414.761C2301.09 403.165 2285.61 391.029 2270.04 379.723C2232.63 350.437 2176.19 322.727 2105.38 298.877C1963.91 254.126 1749.95 251.502 1624.71 274.417C1530.44 291.378 1449.45 314.116 1384.85 341.76L1380 343.813C1321.29 375.457 1235.72 399.817 1130.47 414.847C1097.26 418.879 1060.65 420.799 1022.17 420.526C916.541 418.923 824.882 396.246 734.293 348.137C677.842 318.948 626.92 287.561 577.898 257.189C557.158 244.348 535.137 230.967 515.075 217.981C505.035 211.591 495.033 204.787 486.311 198.522C477.589 192.257 473.307 188.295 466.465 183.254C428.652 153.941 389.599 123.674 298.266 104.586C234.428 92.0104 166.415 83.6189 99.0425 80.0058C31.6704 76.3926 -33.4118 77.6461 -91.594 83.6776L-91.4765 82.433C-33.3756 76.4346 31.5342 75.1551 98.7485 78.6831C165.963 82.2112 233.872 90.4623 297.764 102.864C390.337 122.907 430.03 153.443 467.803 183.171C474.645 188.212 481.487 193.253 487.669 198.232C496.204 204.801 505.808 211.299 516.433 217.691C538.473 230.864 559.834 244.182 579.256 256.899C628.278 287.27 679.2 318.658 735.012 347.577C827.598 395.665 915.321 417.762 1019.63 419.24C1057.75 419.637 1093.97 417.742 1126.59 413.644C1231.4 398.712 1316.53 374.445 1374.76 342.9L1379.61 340.847C1444.81 313.207 1525.98 290.365 1620.17 273.152C1746.77 249.946 1962.71 252.757 2105.45 298.047C2176.73 322.068 2233.59 349.956 2271.4 379.433C2286.95 390.946 2302.41 403.289 2316.66 414.471C2330.9 425.652 2353.85 443.306 2374.45 457.6L2374.24 459.881C2354.35 445.028 2334.5 429.76 2315.3 414.761Z" fill="#E5FAFF"/><path d="M2321.75 400.995C2307.54 389.399 2292.06 377.263 2276.49 365.957C2239.08 336.672 2182.64 308.962 2111.83 285.111C1970.36 240.36 1756.4 237.736 1631.16 260.652C1536.89 277.613 1455.9 300.351 1391.3 327.994L1386.45 330.047C1327.74 361.692 1242.17 386.052 1136.92 401.082C1103.71 405.113 1067.1 407.033 1028.61 406.76C922.99 405.158 831.331 382.48 740.743 334.371C684.291 305.182 633.37 273.795 584.348 243.424C563.607 230.583 541.587 217.202 521.525 204.215C511.484 197.826 501.482 191.021 492.76 184.756C484.038 178.491 479.756 174.529 472.914 169.488C435.102 140.176 396.049 109.909 304.716 90.8202C240.878 78.2448 172.864 69.8533 105.492 66.2401C38.1196 62.627 -26.9626 63.8805 -85.1448 69.912L-85.0272 68.6674C-26.9264 62.669 37.9834 61.3894 105.198 64.9175C172.412 68.4455 240.321 76.6967 304.213 89.0984C396.786 109.141 436.479 139.678 474.252 169.405C481.094 174.446 487.936 179.487 494.118 184.466C502.653 191.036 512.257 197.533 522.883 203.925C544.923 217.098 566.284 230.417 585.706 243.133C634.728 273.505 685.649 304.892 741.461 333.811C834.047 381.9 921.77 403.996 1026.08 405.474C1064.2 405.871 1100.42 403.976 1133.04 399.878C1237.85 384.946 1322.98 360.679 1381.21 329.134L1386.06 327.081C1451.26 299.441 1532.43 276.6 1626.62 259.386C1753.22 236.18 1969.16 238.991 2111.9 284.282C2183.18 308.303 2240.04 336.19 2277.85 365.667C2293.39 377.18 2308.86 389.524 2323.11 400.705C2337.35 411.887 2360.3 429.541 2380.9 443.834L2380.69 446.116C2360.8 431.262 2340.95 415.994 2321.75 400.995Z" fill="#E5FAFF"/><path d="M2328.2 387.234C2313.99 375.637 2298.51 363.502 2282.94 352.196C2245.53 322.91 2189.09 295.2 2118.28 271.35C1976.81 226.599 1762.85 223.974 1637.61 246.89C1543.34 263.851 1462.35 286.589 1397.75 314.232L1392.9 316.286C1334.19 347.93 1248.62 372.29 1143.37 387.32C1110.16 391.352 1073.55 393.271 1035.06 392.998C929.44 391.396 837.78 368.719 747.192 320.61C690.741 291.421 639.819 260.033 590.797 229.662C570.056 216.821 548.036 203.44 527.974 190.454C517.933 184.064 507.932 177.26 499.21 170.995C490.488 164.73 486.205 160.767 479.363 155.726C441.551 126.414 402.498 96.1471 311.165 77.0585C247.327 64.4831 179.313 56.0916 111.941 52.4784C44.5688 48.8652 -20.5134 50.1188 -78.6956 56.1503L-78.578 54.9057C-20.4771 48.9073 44.4326 47.6277 111.647 51.1558C178.861 54.6838 246.771 62.935 310.662 75.3367C403.236 95.3796 442.928 125.916 480.702 155.644C487.543 160.685 494.385 165.726 500.568 170.704C509.102 177.274 518.706 183.771 529.332 190.163C551.372 203.337 572.733 216.655 592.155 229.372C641.177 259.743 692.098 291.13 747.91 320.05C840.496 368.138 928.219 390.234 1032.52 391.712C1070.65 392.11 1106.87 390.215 1139.49 386.117C1244.3 371.185 1329.42 346.917 1387.66 315.373L1392.51 313.319C1457.71 285.68 1538.87 262.838 1633.07 245.624C1759.67 222.419 1975.61 225.23 2118.35 270.52C2189.63 294.541 2246.49 322.429 2284.3 351.905C2299.84 363.419 2315.31 375.762 2329.55 386.943C2343.8 398.125 2366.75 415.779 2387.35 430.072L2387.14 432.354C2367.25 417.501 2347.4 402.232 2328.2 387.234Z" fill="#E5FAFF"/><g style="mix-blend-mode:soft-light"><path d="M2334.65 373.468C2320.44 361.872 2304.95 349.736 2289.39 338.43C2251.98 309.144 2195.54 281.434 2124.72 257.584C1983.26 212.833 1769.3 210.209 1644.06 233.124C1549.78 250.085 1468.79 272.823 1404.2 300.467L1399.35 302.52C1340.63 334.164 1255.07 358.524 1149.82 373.554C1116.61 377.586 1079.99 379.506 1041.51 379.233C935.889 377.63 844.23 354.953 753.641 306.844C697.19 277.655 646.268 246.268 597.246 215.897C576.505 203.055 554.485 189.674 534.423 176.688C524.382 170.298 514.381 163.494 505.659 157.229C496.937 150.964 492.654 147.002 485.812 141.961C448 112.648 408.947 82.3815 317.614 63.2928C253.776 50.7174 185.762 42.3259 118.39 38.7128C51.018 35.0996 -14.0642 36.3532 -72.2463 42.3847L-72.1288 41.1401C-14.0279 35.1417 50.8818 33.8621 118.096 37.3901C185.311 40.9182 253.22 49.1694 317.111 61.5711C409.685 81.614 449.377 112.151 487.151 141.878C493.993 146.919 500.834 151.96 507.017 156.939C515.551 163.508 525.156 170.006 535.781 176.398C557.821 189.571 579.182 202.889 598.604 215.606C647.626 245.977 698.548 277.365 754.359 306.284C846.945 354.372 934.668 376.469 1038.97 377.947C1077.1 378.344 1113.32 376.449 1145.94 372.351C1250.75 357.419 1335.87 333.152 1394.11 301.607L1398.96 299.554C1464.15 271.914 1545.32 249.073 1639.52 231.859C1766.12 208.653 1982.06 211.464 2124.8 256.754C2196.07 280.775 2252.94 308.663 2290.75 338.14C2306.29 349.653 2321.76 361.996 2336 373.178C2350.25 384.359 2373.2 402.013 2393.8 416.307L2393.58 418.588C2373.7 403.735 2353.85 388.467 2334.65 373.468Z" fill="#E5FAFF"/></g></svg>