<?xml version="1.0" encoding="utf-8"?>
<!-- Generator: Adobe Illustrator 25.0.0, SVG Export Plug-In . SVG Version: 6.00 Build 0)  -->
<svg version="1.1" id="Layer_1" xmlns="http://www.w3.org/2000/svg" xmlns:xlink="http://www.w3.org/1999/xlink" x="0px" y="0px"
	 viewBox="0 0 1920 897.5" style="enable-background:new 0 0 1920 897.5;" xml:space="preserve">
<style type="text/css">
	
		.st0{fill:none;stroke:#4DC1FF;stroke-width:0.75;stroke-linecap:round;stroke-linejoin:round;stroke-miterlimit:10;stroke-opacity:0.15;}
	
		.st1{fill:none;stroke:#4DC1FF;stroke-width:0.7647;stroke-linecap:round;stroke-linejoin:round;stroke-miterlimit:10;stroke-opacity:0.15;}
	
		.st2{fill:none;stroke:#4DC1FF;stroke-width:0.7794;stroke-linecap:round;stroke-linejoin:round;stroke-miterlimit:10;stroke-opacity:0.15;}
	
		.st3{fill:none;stroke:#4DC1FF;stroke-width:0.7941;stroke-linecap:round;stroke-linejoin:round;stroke-miterlimit:10;stroke-opacity:0.15;}
	
		.st4{fill:none;stroke:#4DC1FF;stroke-width:0.8088;stroke-linecap:round;stroke-linejoin:round;stroke-miterlimit:10;stroke-opacity:0.15;}
	
		.st5{fill:none;stroke:#4DC1FF;stroke-width:0.8235;stroke-linecap:round;stroke-linejoin:round;stroke-miterlimit:10;stroke-opacity:0.15;}
	
		.st6{fill:none;stroke:#4DC1FF;stroke-width:0.8382;stroke-linecap:round;stroke-linejoin:round;stroke-miterlimit:10;stroke-opacity:0.15;}
	
		.st7{fill:none;stroke:#4DC1FF;stroke-width:0.8529;stroke-linecap:round;stroke-linejoin:round;stroke-miterlimit:10;stroke-opacity:0.15;}
	
		.st8{fill:none;stroke:#4DC1FF;stroke-width:0.8676;stroke-linecap:round;stroke-linejoin:round;stroke-miterlimit:10;stroke-opacity:0.15;}
	
		.st9{fill:none;stroke:#4DC1FF;stroke-width:0.8824;stroke-linecap:round;stroke-linejoin:round;stroke-miterlimit:10;stroke-opacity:0.15;}
	
		.st10{fill:none;stroke:#4DC1FF;stroke-width:0.8971;stroke-linecap:round;stroke-linejoin:round;stroke-miterlimit:10;stroke-opacity:0.15;}
	
		.st11{fill:none;stroke:#4DC1FF;stroke-width:0.9118;stroke-linecap:round;stroke-linejoin:round;stroke-miterlimit:10;stroke-opacity:0.15;}
	
		.st12{fill:none;stroke:#4DC1FF;stroke-width:0.9265;stroke-linecap:round;stroke-linejoin:round;stroke-miterlimit:10;stroke-opacity:0.15;}
	
		.st13{fill:none;stroke:#4DC1FF;stroke-width:0.9412;stroke-linecap:round;stroke-linejoin:round;stroke-miterlimit:10;stroke-opacity:0.15;}
	
		.st14{fill:none;stroke:#4DC1FF;stroke-width:0.9559;stroke-linecap:round;stroke-linejoin:round;stroke-miterlimit:10;stroke-opacity:0.15;}
	
		.st15{fill:none;stroke:#4DC1FF;stroke-width:0.9706;stroke-linecap:round;stroke-linejoin:round;stroke-miterlimit:10;stroke-opacity:0.15;}
	
		.st16{fill:none;stroke:#4DC1FF;stroke-width:0.9853;stroke-linecap:round;stroke-linejoin:round;stroke-miterlimit:10;stroke-opacity:0.15;}
	.st17{fill:none;stroke:#4DC1FF;stroke-linecap:round;stroke-linejoin:round;stroke-miterlimit:10;stroke-opacity:0.15;}
	
		.st18{fill:none;stroke:#4DC1FF;stroke-width:1.0588;stroke-linecap:round;stroke-linejoin:round;stroke-miterlimit:10;stroke-opacity:0.15;}
	
		.st19{fill:none;stroke:#4DC1FF;stroke-width:1.1176;stroke-linecap:round;stroke-linejoin:round;stroke-miterlimit:10;stroke-opacity:0.15;}
	
		.st20{fill:none;stroke:#4DC1FF;stroke-width:1.1765;stroke-linecap:round;stroke-linejoin:round;stroke-miterlimit:10;stroke-opacity:0.15;}
	
		.st21{fill:none;stroke:#4DC1FF;stroke-width:1.2353;stroke-linecap:round;stroke-linejoin:round;stroke-miterlimit:10;stroke-opacity:0.15;}
	
		.st22{fill:none;stroke:#4DC1FF;stroke-width:1.2941;stroke-linecap:round;stroke-linejoin:round;stroke-miterlimit:10;stroke-opacity:0.15;}
	
		.st23{fill:none;stroke:#4DC1FF;stroke-width:1.3529;stroke-linecap:round;stroke-linejoin:round;stroke-miterlimit:10;stroke-opacity:0.15;}
	
		.st24{fill:none;stroke:#4DC1FF;stroke-width:1.4118;stroke-linecap:round;stroke-linejoin:round;stroke-miterlimit:10;stroke-opacity:0.15;}
	
		.st25{fill:none;stroke:#4DC1FF;stroke-width:1.4706;stroke-linecap:round;stroke-linejoin:round;stroke-miterlimit:10;stroke-opacity:0.15;}
	
		.st26{fill:none;stroke:#4DC1FF;stroke-width:1.5294;stroke-linecap:round;stroke-linejoin:round;stroke-miterlimit:10;stroke-opacity:0.15;}
	
		.st27{fill:none;stroke:#4DC1FF;stroke-width:1.5882;stroke-linecap:round;stroke-linejoin:round;stroke-miterlimit:10;stroke-opacity:0.15;}
	
		.st28{fill:none;stroke:#4DC1FF;stroke-width:1.6471;stroke-linecap:round;stroke-linejoin:round;stroke-miterlimit:10;stroke-opacity:0.15;}
	
		.st29{fill:none;stroke:#4DC1FF;stroke-width:1.7059;stroke-linecap:round;stroke-linejoin:round;stroke-miterlimit:10;stroke-opacity:0.15;}
	
		.st30{fill:none;stroke:#4DC1FF;stroke-width:1.7647;stroke-linecap:round;stroke-linejoin:round;stroke-miterlimit:10;stroke-opacity:0.15;}
	
		.st31{fill:none;stroke:#4DC1FF;stroke-width:1.8235;stroke-linecap:round;stroke-linejoin:round;stroke-miterlimit:10;stroke-opacity:0.15;}
	
		.st32{fill:none;stroke:#4DC1FF;stroke-width:1.8824;stroke-linecap:round;stroke-linejoin:round;stroke-miterlimit:10;stroke-opacity:0.15;}
	
		.st33{fill:none;stroke:#4DC1FF;stroke-width:1.9412;stroke-linecap:round;stroke-linejoin:round;stroke-miterlimit:10;stroke-opacity:0.15;}
	
		.st34{fill:none;stroke:#4DC1FF;stroke-width:2;stroke-linecap:round;stroke-linejoin:round;stroke-miterlimit:10;stroke-opacity:0.15;}
</style>
<path class="st0" d="M-1222.6,1362.6c0,0,426.8,77.8,825.2-342.4C0.9,600,246.8,222.5,828.2,318.1
	c581.3,95.6,942.7-266.1,1164.2-693.6c221.5-427.5,706.9-364.2,706.9-364.2"/>
<path class="st1" d="M-1212.2,1388.5c0.8-0.3,441.9,51.7,826.2-367.4C-1.8,601.9,253.8,231.5,831.4,330.7s940-256.3,1156-678.1
	c216-421.8,717-364.1,717-364.1"/>
<path class="st2" d="M-1201.9,1414.3c1.5-0.7,457.4,24.8,827.9-392.8C-3.6,604,260.7,240.6,836,342.6
	c575.3,102.1,938.1-246.8,1148.1-662.1c210-415.3,726.1-364,726.1-364"/>
<path class="st3" d="M-1191.6,1440.2c2.2-1.1,472.4-1.3,829.1-417.3c356.7-416,630.5-772.8,1202.5-668
	c572.1,104.8,936.2-237.3,1139.9-646.6c203.7-409.3,736.1-363.8,736.1-363.8"/>
<path class="st4" d="M-1181.3,1466c3-1.4,487.4-27.3,830.1-442.3C-8.6,608.8,274.6,258.6,843,367
	c568.3,108.4,934.3-227.8,1132-630.6c197.7-402.8,746.2-363.7,746.2-363.7"/>
<path class="st5" d="M-1171,1491.9c3.7-1.8,502.9-54.3,831-467.3c328.2-413,621.6-757,1186.9-645.3s932.4-218.4,1123.9-615.1
	S2727-599.3,2727-599.3"/>
<path class="st6" d="M-1160.7,1517.7c4.5-2.1,517.9-80.3,832-492.3C-14.5,613.4,287.8,277,850.8,391.5
	c563,114.6,930.3-209.4,1115.7-599.6C2152-598.4,2732.1-571,2732.1-571"/>
<path class="st7" d="M-1150.3,1543.6c5.2-2.4,533.4-107.2,833-517.3C-17.8,616.2,294.8,286,854,404.2
	c559.3,118.2,927.6-199.5,1107.8-583.7c180.1-384.1,775.7-362.8,775.7-362.8"/>
<path class="st8" d="M-1140,1569.4c6-2.8,548.4-133.3,834.7-542.7C-19,617.4,302.5,294.6,858.5,415.6
	c556,120.9,925.7-190.1,1099.6-568.2s785.8-362.6,785.8-362.6"/>
<path class="st9" d="M-1129.7,1595.3c6.7-3.1,564.1-159.7,835.7-567.7c271.5-408,603.2-724.4,1156.5-599.8
	c553.3,124.7,923.1-180.2,1090.7-552.3c167.6-372.1,795.1-362,795.1-362"/>
<path class="st10" d="M-1119.4,1621.2c8.2-3.8,578.9-186.3,836.6-592.7C-25,622,315.4,312.5,865.4,440
	c550,127.4,921.9-171.1,1083.5-536.7c161.6-365.6,805.2-361.8,805.2-361.8"/>
<path class="st11" d="M-1109.1,1647c8.9-4.2,593.9-212.4,837.6-617.7C-27.8,623.9,322.3,321.5,869.3,452.2
	c547,130.7,920-161.6,1075.4-521.2c155.3-359.6,815.2-361.7,815.2-361.7"/>
<path class="st12" d="M-1098.8,1672.9c9.9-4,609.4-239.3,838.6-642.7C-31,626.7,329.3,330.6,873.3,464.5
	c544,134,917.4-151.8,1067.2-505.7c149.8-353.9,825.3-361.5,825.3-361.5"/>
<path class="st13" d="M-1088.4,1698.7c10.6-4.4,624.4-265.4,840.3-668.1C-32.3,627.9,336,339.1,877,476.3
	c541,137.2,915.5-142.3,1059.3-489.7c143.8-347.4,834.4-361.4,834.4-361.4"/>
<path class="st14" d="M-1078.1,1724.6c11.4-4.7,639.9-292.3,841.3-693.1C-35.5,630.7,343,348.1,880.9,488.5
	C1418.9,629,1794.5,355.8,1932,14.4s844.5-361.3,844.5-361.3"/>
<path class="st15" d="M-1067.8,1750.4c12.1-5.1,654.9-318.4,842.2-718.1c187.3-399.8,575.5-675.2,1110.2-532
	C1419.3,643.5,1796.3,377,1927.8,42.1s854-360.2,854-360.2"/>
<path class="st16" d="M-1057.5,1776.3c12.9-5.4,670.7-344.8,843.2-743.1c172.6-398.4,571.2-667,1102.1-520.2
	c530.9,146.8,909.7-113.8,1035-442.7s864.6-360.9,864.6-360.9"/>
<path class="st17" d="M-1047.2,1802.1c13.6-5.8,685.4-371.3,844.4-767.6c159-396.3,565.9-659,1094.8-508.8
	c528.9,150.2,907.1-104,1027.1-426.7C2038.8-224.2,2793-261.4,2793-261.4"/>
<path class="st18" d="M-1053.8,1799.7c13.4-6.3,683.2-368.4,838.3-770.9C-60.3,626.3,368.3,344.1,872.6,523.1
	c441.3,157,781.7-13.2,949.7-274.4c32.4-50.8,59.3-103.9,79.2-158.1c63.4-168.5,270.9-262.2,475.6-307.9
	c221.1-49.1,422.2-52,422.2-52"/>
<path class="st19" d="M-1060.1,1797.8c13.4-6.3,680.1-365.2,832.5-773.7C-75.3,615.5,373.3,316,853,521.9
	c440.9,189.1,784.8,5,952.4-274.4c32-53.7,58.9-108.7,79.8-164.5c68.6-180.8,276.9-278.5,488.5-318.9
	c230.6-44.4,432.3-40.2,432.3-40.2"/>
<path class="st20" d="M-1066,1795c13.2-6.8,677.9-362.3,826.6-776.5c148.8-414.2,617.8-730.1,1073-499.2
	c440.5,223,788.9,23.3,954.4-274.1c31.6-56.6,58.5-113.4,79.9-170.1c73.8-193,283.1-294.3,501.5-329.9
	c240.4-39.1,443.2-28.7,443.2-28.7"/>
<path class="st21" d="M-1072.3,1793.1c13.2-6.8,674.6-359.5,820.8-779.3c146.2-419.7,633-750.1,1066.3-496
	c439.6,257.8,792,41.5,956.3-273.8c30.4-59.1,58.1-118.1,80.6-176.5c78.9-205.2,289.8-311,514.3-341.4
	c250.8-34.2,453.2-16.8,453.2-16.8"/>
<path class="st22" d="M-1078.7,1791.1c13.2-6.8,672.4-356.6,815-782c142.6-425.4,647.6-769.2,1058.8-492.5
	c437.7,294.3,795.3,60.2,958.3-273.5c29.9-61.9,57.7-122.8,80.4-182.6c84-217.5,296-326.8,528-352.7c260.6-29,464.3-4.9,464.3-4.9"
	/>
<path class="st23" d="M-1084.5,1788.3c12.9-7.3,669.3-353.4,809.1-784.8c139.8-431.5,661-787.1,1052.1-489.4
	c435,331.2,798.4,78.4,960.2-273.2c29.8-64.3,57-128,81.1-189c89.9-230.1,302.2-342.6,540.8-364.3c271-24,474.4,7,474.4,7"/>
<path class="st24" d="M-1090.9,1786.4c12.9-7.3,667.1-350.5,803.3-787.6S385.2,194.4,757.1,512.9
	c431.1,369.3,802.5,96.8,963.2-272.7c29.3-67.2,56.6-132.8,80.9-195.1c95.1-242.3,308.4-358.4,553.8-375.3
	c280.8-18.8,484.5,18.8,484.5,18.8"/>
<path class="st25" d="M-1096.7,1783.6c12.7-7.8,664.1-347.2,797.4-790.4c133.4-443.2,684.2-820.8,1038-482.8
	c425.7,408,805.8,115.5,965.1-272.4c28.9-70,56.2-137.5,81.5-201.6c100.5-254,314.6-374.2,566.8-386.3
	c290.5-13.5,495.3,30.3,495.3,30.3"/>
<path class="st26" d="M-1103.1,1781.7c12.7-7.8,661.6-344.8,791.6-793.2c130-448.4,694.9-836.8,1030.6-479.3
	c419.7,447.6,809.9,133.8,967.1-272.1c28.4-72.9,55.8-142.2,81.4-207.6c105.6-266.3,320.6-390.5,579.5-397.8
	c300.2-8.3,505.4,42.1,505.4,42.1"/>
<path class="st27" d="M-1109.7,1779.3c12.4-8.3,659.3-341.9,785.7-796c126.4-454.1,704.7-852.5,1023.9-476.1
	c412.8,487.1,813.7,151.6,969.1-271.8c28-75.8,55.4-146.9,82-214.1c110.8-278.5,326.8-406.3,592.5-408.8
	c310.7-3.4,516.5,54.1,516.5,54.1"/>
<path class="st28" d="M-1115.3,1777c12.5-8.3,656.3-338.7,779.9-798.7C-211.8,518.1,378.5,110.4,681,505.6
	c403.9,528.1,817,170.3,971-271.5c27.6-78.6,55-151.7,81.9-220.1c115.9-290.7,333-422.1,605.5-419.8c320.4,1.9,526.6,66,526.6,66"/>
<path class="st29" d="M-1121.6,1775.1c12.4-8.3,654-335.7,773.8-802S374.5,90.2,661.9,503.5c394.8,568.6,821.1,188.7,973.7-271.5
	c27.1-81.5,54.4-156.9,82.5-226.6c121.8-303.3,339.2-437.9,618.2-431.3c330.4,7.6,537.5,77.5,537.5,77.5"/>
<path class="st30" d="M-1128.2,1772.6c12.2-8.8,651-332.5,768-804.8c117-472.3,730.4-898.3,1002.3-466
	c384.2,609.8,825.2,207,975.9-270.7c26.7-84.3,54-161.6,82.6-232.1c127-315.6,345.4-453.7,631.2-442.3
	c340.1,12.9,547.5,89.3,547.5,89.3"/>
<path class="st31" d="M-1133.8,1770.3c12.2-8.8,648.5-330.1,761.4-807.3c112.9-477.2,737.9-913.5,995.6-462.9
	C996,1151.6,1453.4,725.8,1601,229.8c26.5-86.7,53.6-166.3,83.2-238.6c132.1-327.8,351.1-468.6,644.2-453.3
	c349.9,18.2,558.6,101.3,558.6,101.3"/>
<path class="st32" d="M-1140.4,1767.9c12-9.3,645.5-326.8,755.5-810c110-483.2,744.5-928.3,988.2-459.4
	c360,693.6,834.3,243.9,979.8-270.1c26.1-89.6,53.2-171.1,83.1-244.6c138-340.4,358-484.8,657.7-465.2
	c359.1,24.3,568.7,113.1,568.7,113.1"/>
<path class="st33" d="M-1146,1765.6c12-9.3,643.2-323.9,749.7-812.8c106.5-488.9,751-943.6,981.5-456.2
	c346.6,734.9,837.4,262.1,981.8-269.8c25.6-92.4,52.8-175.8,83-250.7c142.4-352.3,363.5-500.2,670.5-476.7
	c369.8,29.7,578.8,125,578.8,125"/>
<path class="st34" d="M-1152.6,1763.2c11.7-9.8,640.2-320.7,743.8-815.6s757.4-958.9,974-452.7c332.8,776.9,841.5,280.4,983.8-269.5
	c142.3-549.9,387.8-779.3,766.3-744.5c378.5,34.8,590.6,136.6,590.6,136.6"/>
</svg>
