<svg width="1920" height="1899" viewBox="0 0 1920 1899" fill="none" xmlns="http://www.w3.org/2000/svg"><path d="M-1222.56 1362.61C-1222.56 1362.61 -795.714 1440.41 -397.382 1020.22C0.94978 600.028 246.832 222.52 828.164 318.071C1409.5 413.622 1770.82 51.9253 1992.35 -375.545C2213.88 -803.016 2699.26 -739.788 2699.26 -739.788" stroke="#4DC1FF" stroke-opacity="0.15" stroke-width="0.75" stroke-miterlimit="10" stroke-linecap="round" stroke-linejoin="round"/><path d="M-1212.25 1388.47C-1211.5 1388.12 -770.398 1440.2 -386.094 1021.07C-1.7899 601.933 253.786 231.54 831.363 330.695C1408.94 429.85 1771.38 74.3856 1987.39 -347.428C2203.41 -769.241 2704.37 -711.485 2704.37 -711.485" stroke="#4DC1FF" stroke-opacity="0.15" stroke-width="0.7647" stroke-miterlimit="10" stroke-linecap="round" stroke-linejoin="round"/><path d="M-1201.93 1414.33C-1200.44 1413.63 -744.573 1439.13 -374.062 1021.56C-3.5503 603.99 260.739 240.558 836.048 342.619C1411.36 444.679 1774.16 95.7969 1984.15 -319.507C2194.14 -734.81 2710.22 -683.533 2710.22 -683.533" stroke="#4DC1FF" stroke-opacity="0.15" stroke-width="0.7794" stroke-miterlimit="10" stroke-linecap="round" stroke-linejoin="round"/><path d="M-1191.62 1440.18C-1189.39 1439.13 -719.264 1438.92 -362.545 1022.91C-5.82515 606.894 267.921 250.074 839.982 354.886C1412.04 459.699 1776.19 117.552 1979.92 -291.745C2183.66 -701.042 2716.06 -655.587 2716.06 -655.587" stroke="#4DC1FF" stroke-opacity="0.15" stroke-width="0.7941" stroke-miterlimit="10" stroke-linecap="round" stroke-linejoin="round"/><path d="M-1181.3 1466.03C-1178.33 1464.63 -693.942 1438.7 -351.25 1023.74C-8.55895 608.79 274.644 258.583 842.95 366.999C1411.26 475.416 1777.25 139.152 1974.96 -263.635C2172.67 -666.423 2721.18 -627.292 2721.18 -627.292" stroke="#4DC1FF" stroke-opacity="0.15" stroke-width="0.8088" stroke-miterlimit="10" stroke-linecap="round" stroke-linejoin="round"/><path d="M-1170.98 1491.89C-1167.26 1490.14 -668.114 1437.63 -339.959 1024.59C-11.804 611.543 281.6 267.599 846.895 379.27C1412.19 490.941 1779.3 160.91 1970.75 -235.871C2162.2 -632.652 2727.03 -599.343 2727.03 -599.343" stroke="#4DC1FF" stroke-opacity="0.15" stroke-width="0.8235" stroke-miterlimit="10" stroke-linecap="round" stroke-linejoin="round"/><path d="M-1160.66 1517.74C-1156.2 1515.64 -642.793 1437.42 -328.666 1025.43C-14.5391 613.442 287.815 276.963 850.841 391.54C1413.87 506.117 1781.11 182.164 1966.53 -208.107C2151.96 -598.379 2732.15 -571.046 2732.15 -571.046" stroke="#4DC1FF" stroke-opacity="0.15" stroke-width="0.8382" stroke-miterlimit="10" stroke-linecap="round" stroke-linejoin="round"/><path d="M-1150.35 1543.59C-1145.14 1541.15 -616.974 1436.35 -317.383 1026.27C-17.7915 616.193 294.763 285.977 854.034 404.158C1413.31 522.339 1781.65 204.618 1961.8 -179.492C2141.95 -563.603 2737.49 -542.246 2737.49 -542.246" stroke="#4DC1FF" stroke-opacity="0.15" stroke-width="0.8529" stroke-miterlimit="10" stroke-linecap="round" stroke-linejoin="round"/><path d="M-1140.04 1569.45C-1134.09 1566.66 -591.663 1436.13 -305.356 1026.77C-19.0491 617.397 302.455 294.645 858.479 415.578C1414.5 536.51 1784.19 225.525 1958.08 -152.579C2131.97 -530.683 2743.84 -515.147 2743.84 -515.147" stroke="#4DC1FF" stroke-opacity="0.15" stroke-width="0.8676" stroke-miterlimit="10" stroke-linecap="round" stroke-linejoin="round"/><path d="M-1129.72 1595.3C-1123.02 1592.16 -565.594 1435.57 -294.059 1027.61C-22.5243 619.648 309.181 303.16 862.429 427.85C1415.68 552.54 1785.5 247.634 1953.13 -124.463C2120.76 -496.561 2748.21 -486.498 2748.21 -486.498" stroke="#4DC1FF" stroke-opacity="0.15" stroke-width="0.8824" stroke-miterlimit="10" stroke-linecap="round" stroke-linejoin="round"/><path d="M-1119.4 1621.15C-1111.22 1617.31 -540.513 1434.84 -282.771 1028.44C-25.0282 622.041 315.39 312.514 865.39 439.957C1415.39 567.399 1787.3 268.879 1948.91 -96.709C2110.51 -462.297 2754.06 -458.559 2754.06 -458.559" stroke="#4DC1FF" stroke-opacity="0.15" stroke-width="0.8971" stroke-miterlimit="10" stroke-linecap="round" stroke-linejoin="round"/><path d="M-1109.09 1647.01C-1100.16 1642.82 -515.203 1434.64 -271.489 1029.29C-27.7742 623.947 322.338 321.536 869.326 452.233C1416.31 582.929 1789.33 290.642 1944.68 -68.9393C2100.03 -428.521 2759.91 -430.605 2759.91 -430.605" stroke="#4DC1FF" stroke-opacity="0.15" stroke-width="0.9118" stroke-miterlimit="10" stroke-linecap="round" stroke-linejoin="round"/><path d="M-1098.77 1672.87C-1088.86 1668.83 -489.371 1433.57 -260.193 1030.13C-31.0147 626.701 329.298 330.553 873.275 464.504C1417.25 598.456 1790.64 312.75 1940.47 -41.1738C2090.3 -395.098 2765.77 -402.654 2765.77 -402.654" stroke="#4DC1FF" stroke-opacity="0.15" stroke-width="0.9265" stroke-miterlimit="10" stroke-linecap="round" stroke-linejoin="round"/><path d="M-1088.45 1698.71C-1077.8 1694.33 -464.058 1433.35 -248.163 1030.62C-32.2693 627.897 336.013 339.06 876.979 476.266C1417.94 613.473 1792.44 333.999 1936.24 -13.4153C2080.05 -360.83 2770.64 -374.865 2770.64 -374.865" stroke="#4DC1FF" stroke-opacity="0.15" stroke-width="0.9412" stroke-miterlimit="10" stroke-linecap="round" stroke-linejoin="round"/><path d="M-1078.14 1724.57C-1066.74 1719.84 -438.236 1432.29 -236.878 1031.47C-35.52 630.654 342.963 348.08 880.917 488.541C1418.87 629.002 1794.47 355.761 1932.02 14.3535C2069.57 -327.054 2776.49 -346.911 2776.49 -346.911" stroke="#4DC1FF" stroke-opacity="0.15" stroke-width="0.9559" stroke-miterlimit="10" stroke-linecap="round" stroke-linejoin="round"/><path d="M-1067.83 1750.42C-1055.69 1745.34 -412.92 1432.07 -225.59 1032.31C-38.2606 632.551 349.917 357.092 884.623 500.305C1419.33 643.518 1796.27 377.013 1927.8 42.1145C2059.33 -292.784 2781.83 -318.113 2781.83 -318.113" stroke="#4DC1FF" stroke-opacity="0.15" stroke-width="0.9706" stroke-miterlimit="10" stroke-linecap="round" stroke-linejoin="round"/><path d="M-1057.51 1776.27C-1044.62 1770.84 -386.856 1431.5 -214.299 1033.15C-41.741 634.794 356.873 366.101 887.824 512.919C1418.77 659.736 1797.57 399.114 1922.84 70.2219C2048.11 -258.67 2787.45 -290.673 2787.45 -290.673" stroke="#4DC1FF" stroke-opacity="0.15" stroke-width="0.9853" stroke-miterlimit="10" stroke-linecap="round" stroke-linejoin="round"/><path d="M-1047.19 1802.14C-1033.56 1796.36 -361.778 1430.79 -202.776 1034.5C-43.7747 638.213 363.081 375.476 892 525.702C1420.92 675.928 1799.1 421.733 1919.09 99.0024C2038.84 -224.232 2793.03 -261.359 2793.03 -261.359" stroke="#4DC1FF" stroke-opacity="0.15" stroke-miterlimit="10" stroke-linecap="round" stroke-linejoin="round"/><path d="M-1053.79 1799.7C-1040.4 1793.41 -370.64 1431.26 -215.451 1028.78C-60.2628 626.297 368.346 344.144 872.629 523.119C1313.93 680.081 1654.37 509.895 1822.33 248.76C1854.76 197.935 1881.59 144.831 1901.55 90.6491C1965 -77.8627 2172.49 -171.544 2377.1 -217.214C2598.24 -266.344 2799.32 -269.229 2799.32 -269.229" stroke="#4DC1FF" stroke-opacity="0.15" stroke-width="1.0588" stroke-miterlimit="10" stroke-linecap="round" stroke-linejoin="round"/><path d="M-1060.12 1797.77C-1046.73 1791.48 -379.989 1432.58 -227.633 1024.06C-75.2777 615.544 373.325 316.029 853.007 521.895C1293.94 710.952 1637.84 526.865 1805.41 247.494C1837.41 193.805 1864.27 138.842 1885.25 82.9559C1953.85 -97.7949 2162.16 -195.542 2373.79 -235.914C2604.42 -280.29 2806.1 -276.091 2806.1 -276.091" stroke="#4DC1FF" stroke-opacity="0.15" stroke-width="1.1176" stroke-miterlimit="10" stroke-linecap="round" stroke-linejoin="round"/><path d="M-1065.98 1794.98C-1052.83 1788.2 -388.114 1432.7 -239.336 1018.5C-90.557 604.292 378.512 288.42 833.629 519.318C1274.15 742.331 1622.54 542.637 1787.99 245.226C1819.55 188.672 1846.45 131.851 1867.94 75.1123C1941.69 -117.877 2151.05 -219.187 2369.47 -254.764C2609.83 -293.884 2812.62 -283.451 2812.62 -283.451" stroke="#4DC1FF" stroke-opacity="0.15" stroke-width="1.1765" stroke-miterlimit="10" stroke-linecap="round" stroke-linejoin="round"/><path d="M-1072.33 1793.06C-1059.17 1786.27 -397.706 1433.53 -251.525 1013.79C-105.343 594.048 381.453 263.719 814.745 517.75C1254.35 775.57 1606.74 559.263 1771.07 243.966C1801.45 184.896 1829.12 125.868 1851.63 67.4249C1930.53 -137.804 2141.45 -243.529 2365.91 -273.962C2616.75 -308.173 2819.16 -290.811 2819.16 -290.811" stroke="#4DC1FF" stroke-opacity="0.15" stroke-width="1.2353" stroke-miterlimit="10" stroke-linecap="round" stroke-linejoin="round"/><path d="M-1078.69 1791.13C-1065.53 1784.34 -406.336 1434.5 -263.731 1009.08C-121.126 583.649 383.868 239.87 795.098 516.531C1232.78 810.862 1590.42 576.741 1753.38 243.054C1783.33 181.12 1811.04 120.233 1833.81 60.4347C1917.86 -157.033 2129.84 -266.321 2361.83 -292.308C2622.4 -321.262 2826.15 -297.164 2826.15 -297.164" stroke="#4DC1FF" stroke-opacity="0.15" stroke-width="1.2941" stroke-miterlimit="10" stroke-linecap="round" stroke-linejoin="round"/><path d="M-1084.52 1788.34C-1071.61 1781.05 -415.185 1434.97 -275.413 1003.5C-135.641 572.038 385.555 216.359 776.72 514.099C1211.72 845.291 1575.14 592.503 1736.96 240.931C1766.71 176.635 1793.98 112.884 1818.01 51.8838C1907.95 -178.172 2120.23 -290.674 2358.79 -312.369C2629.82 -336.415 2833.2 -305.386 2833.2 -305.386" stroke="#4DC1FF" stroke-opacity="0.15" stroke-width="1.3529" stroke-miterlimit="10" stroke-linecap="round" stroke-linejoin="round"/><path d="M-1090.88 1786.41C-1077.96 1779.12 -423.809 1435.95 -287.614 998.797C-151.419 561.644 385.236 194.414 757.08 512.884C1188.16 882.139 1559.57 609.637 1720.26 240.178C1749.57 173.018 1776.88 107.408 1801.18 45.0526C1896.27 -197.242 2109.61 -313.307 2354.95 -330.207C2635.71 -348.996 2839.45 -311.386 2839.45 -311.386" stroke="#4DC1FF" stroke-opacity="0.15" stroke-width="1.4118" stroke-miterlimit="10" stroke-linecap="round" stroke-linejoin="round"/><path d="M-1096.73 1783.64C-1084.05 1775.85 -432.67 1436.43 -299.308 993.24C-165.946 550.049 384.916 172.469 738.69 510.469C1164.35 918.483 1544.5 625.919 1703.83 238.071C1732.7 168.046 1760.05 100.577 1785.37 36.5178C1885.85 -217.513 2099.99 -337.643 2352.12 -349.749C2642.62 -363.281 2847.47 -319.438 2847.47 -319.438" stroke="#4DC1FF" stroke-opacity="0.15" stroke-width="1.4706" stroke-miterlimit="10" stroke-linecap="round" stroke-linejoin="round"/><path d="M-1103.07 1781.7C-1090.39 1773.9 -441.515 1436.89 -311.493 988.515C-181.472 540.139 383.361 151.706 719.065 509.235C1138.81 956.862 1528.95 643.033 1686.17 237.144C1714.6 164.255 1741.99 94.928 1767.57 29.5132C1873.2 -236.756 2088.17 -360.953 2347.08 -368.263C2647.31 -376.539 2852.52 -326.114 2852.52 -326.114" stroke="#4DC1FF" stroke-opacity="0.15" stroke-width="1.5294" stroke-miterlimit="10" stroke-linecap="round" stroke-linejoin="round"/><path d="M-1109.66 1779.26C-1097.22 1770.96 -450.373 1437.36 -323.928 983.294C-197.484 529.23 380.811 130.797 699.934 507.156C1112.77 994.241 1513.65 658.799 1669 235.374C1697 159.619 1724.41 88.4342 1751.02 21.3149C1861.8 -257.194 2077.81 -384.953 2343.52 -387.468C2654.21 -390.836 2860.03 -333.327 2860.03 -333.327" stroke="#4DC1FF" stroke-opacity="0.15" stroke-width="1.5882" stroke-miterlimit="10" stroke-linecap="round" stroke-linejoin="round"/><path d="M-1115.28 1776.99C-1102.83 1768.69 -458.998 1438.34 -335.387 978.242C-211.776 518.14 378.495 110.404 681.036 505.594C1084.98 1033.69 1498.08 675.935 1652.06 234.12C1679.62 155.501 1707.07 82.4573 1733.95 13.9827C1849.88 -276.765 2066.95 -408.087 2339.44 -405.807C2659.87 -403.918 2866.05 -339.827 2866.05 -339.827" stroke="#4DC1FF" stroke-opacity="0.15" stroke-width="1.6471" stroke-miterlimit="10" stroke-linecap="round" stroke-linejoin="round"/><path d="M-1121.62 1775.05C-1109.18 1766.75 -467.612 1439.31 -347.814 973.017C-228.016 506.724 374.466 90.1888 661.914 503.511C1056.72 1072.11 1483.03 692.2 1635.64 231.996C1662.77 150.513 1690.02 75.1072 1718.15 5.43125C1839.97 -297.904 2057.35 -432.44 2336.39 -425.869C2666.78 -418.219 2873.84 -348.399 2873.84 -348.399" stroke="#4DC1FF" stroke-opacity="0.15" stroke-width="1.7059" stroke-miterlimit="10" stroke-linecap="round" stroke-linejoin="round"/><path d="M-1128.22 1772.62C-1116.01 1763.82 -477.218 1440.13 -360.253 967.802C-243.287 495.472 370.189 69.4801 642.035 501.787C1026.22 1111.59 1467.22 708.824 1617.96 231.083C1644.65 146.735 1671.94 69.4712 1700.57 -1.05688C1827.55 -316.631 2045.97 -454.73 2331.81 -443.364C2671.93 -430.457 2879.35 -354.056 2879.35 -354.056" stroke="#4DC1FF" stroke-opacity="0.15" stroke-width="1.7647" stroke-miterlimit="10" stroke-linecap="round" stroke-linejoin="round"/><path d="M-1133.82 1770.35C-1121.61 1761.55 -485.327 1440.26 -372.447 963.097C-259.566 485.931 365.413 49.631 623.145 500.225C995.962 1151.58 1453.38 725.764 1601.03 229.829C1627.52 143.119 1654.61 63.4937 1684.26 -8.73888C1816.38 -336.552 2035.35 -477.362 2328.48 -462.053C2678.33 -443.889 2887.1 -360.752 2887.1 -360.752" stroke="#4DC1FF" stroke-opacity="0.15" stroke-width="1.8235" stroke-miterlimit="10" stroke-linecap="round" stroke-linejoin="round"/><path d="M-1140.4 1767.9C-1128.43 1758.6 -494.921 1441.08 -384.873 957.872C-274.826 474.668 359.66 29.6097 603.279 498.49C963.242 1192.1 1437.59 742.377 1583.12 228.402C1609.17 138.828 1636.3 57.344 1666.22 -16.2439C1804.24 -356.645 2024.26 -501.018 2323.95 -481.417C2683.02 -457.144 2892.65 -368.277 2892.65 -368.277" stroke="#4DC1FF" stroke-opacity="0.15" stroke-width="1.8824" stroke-miterlimit="10" stroke-linecap="round" stroke-linejoin="round"/><path d="M-1146.02 1765.63C-1134.04 1756.33 -502.801 1441.71 -396.33 952.82C-289.859 463.928 354.641 9.25906 585.126 496.58C931.763 1231.43 1422.53 758.661 1566.93 226.8C1592.55 134.361 1619.71 51.0187 1649.9 -23.9244C1792.33 -376.216 2013.4 -524.151 2320.38 -500.607C2690.16 -470.923 2899.18 -375.63 2899.18 -375.63" stroke="#4DC1FF" stroke-opacity="0.15" stroke-width="1.9412" stroke-miterlimit="10" stroke-linecap="round" stroke-linejoin="round"/><path d="M-1152.61 1763.2C-1140.87 1753.39 -512.405 1442.53 -408.767 947.601C-305.129 452.672 348.642 -11.2589 565.25 494.852C898.052 1271.8 1406.72 775.282 1549.01 225.38C1691.31 -324.522 1936.8 -553.9 2315.33 -519.113C2693.85 -484.326 2905.95 -382.491 2905.95 -382.491" stroke="#4DC1FF" stroke-opacity="0.15" stroke-width="2" stroke-miterlimit="10" stroke-linecap="round" stroke-linejoin="round"/></svg>