<svg width="45" height="45" viewBox="0 0 45 45" fill="none" xmlns="http://www.w3.org/2000/svg"><path  fill="#4DC1FF" fill-rule="evenodd" clip-rule="evenodd" d="M16.7358 30.7312H26.8348C27.5959 30.7312 28.2271 30.0938 28.2271 29.325C28.2271 28.5562 27.5959 27.9375 26.8348 27.9375H16.7358C15.9746 27.9375 15.3434 28.5562 15.3434 29.325C15.3434 30.0938 15.9746 30.7312 16.7358 30.7312ZM23.0105 18.5625H16.7358C15.9746 18.5625 15.3434 19.2 15.3434 19.9688C15.3434 20.7375 15.9746 21.3562 16.7358 21.3562H23.0105C23.7717 21.3562 24.4028 20.7375 24.4028 19.9688C24.4028 19.2 23.7717 18.5625 23.0105 18.5625ZM36.2589 16.923C36.6952 16.918 37.1704 16.9125 37.6021 16.9125C38.0662 16.9125 38.4375 17.2875 38.4375 17.7562V32.8313C38.4375 37.4813 34.7061 41.25 30.1021 41.25H15.3249C10.4981 41.25 6.5625 37.2938 6.5625 32.4188V12.2063C6.5625 7.55625 10.3125 3.75 14.935 3.75H24.8484C25.3311 3.75 25.7024 4.14375 25.7024 4.6125V10.65C25.7024 14.0813 28.5056 16.8938 31.9028 16.9125C32.6964 16.9125 33.396 16.9184 34.0082 16.9236C34.4845 16.9277 34.9079 16.9313 35.2816 16.9313C35.5458 16.9313 35.8884 16.9273 36.2589 16.923ZM36.7708 14.1862C35.2448 14.1919 33.4459 14.1862 32.152 14.1731C30.0988 14.1731 28.4075 12.465 28.4075 10.3912V5.44875C28.4075 4.64063 29.3785 4.23938 29.9335 4.8225C30.9388 5.87821 32.3205 7.32961 33.6956 8.77414C35.0656 10.2133 36.4292 11.6457 37.4076 12.6731C37.9496 13.2412 37.5524 14.1844 36.7708 14.1862Z"/></svg>