<?xml version="1.0" encoding="utf-8"?>
<!-- Generator: Adobe Illustrator 25.0.0, SVG Export Plug-In . SVG Version: 6.00 Build 0)  -->
<svg version="1.1" id="Layer_1" xmlns="http://www.w3.org/2000/svg" xmlns:xlink="http://www.w3.org/1999/xlink" x="0px" y="0px"
	 viewBox="0 0 229 39" style="enable-background:new 0 0 229 39;" xml:space="preserve">
<style type="text/css">
	.st0{fill:#15B9D5;}
	.st1{fill:#FFFFFF;}
</style>
<path class="st0" d="M43.4,21l2,10.7l1.2,6.2h3.1c4.9,0,9-3,10.5-7.6l-10.8-7.5l-4.3-3C44.7,20.5,44.1,20.9,43.4,21z"/>
<path class="st0" d="M10.2,28.1L1.2,32c1.9,3.7,5.6,6,9.9,6h5.6L14,29.8c-0.2,0.1-0.5,0.1-0.7,0.1C12,29.9,10.8,29.1,10.2,28.1z"/>
<path class="st0" d="M11.1,23.8l-4.7-6.8L6.2,17v0C2.3,18.9,0,22.7,0,27c0,1.5,0.3,3,0.9,4.4l9.1-3.9c-0.1-0.3-0.2-0.7-0.2-1.1
	C9.8,25.3,10.3,24.4,11.1,23.8z"/>
<path class="st0" d="M15.9,28.7c-0.3,0.4-0.8,0.7-1.3,0.9l2.7,8.4h11.8l-5.8-4.1L15.9,28.7z"/>
<path class="st0" d="M23.4,33.9l5.8,4.1l-0.4-0.3L23.4,33.9z"/>
<path class="st0" d="M14.6,29.6l2.7,8.4L14.6,29.6z"/>
<path class="st0" d="M13.7,23l1.2-5.8l0.9-4.3c-0.3-0.1-0.5-0.3-0.7-0.5L7,16.6l4.6,6.8c0.5-0.3,1.1-0.4,1.7-0.4
	C13.4,23,13.5,23,13.7,23z"/>
<path class="st0" d="M18.2,10.6l17-2.9l0.5-0.1C33,2.9,27.9,0,22.4,0c-1.1,0-2.2,0.1-3.3,0.3l-0.8,3.6l-1.2,5.7
	C17.7,9.8,18.1,10.1,18.2,10.6z"/>
<path class="st0" d="M14.7,11.3c0-1,0.8-1.8,1.8-1.8l1.9-9C11.6,2.3,6.8,8.4,6.8,15.6V16l8-4.2C14.8,11.6,14.7,11.4,14.7,11.3z"/>
<path class="st0" d="M6.8,16l8-4.2L6.8,16z"/>
<path class="st0" d="M16.5,9.5l1.9-9L16.5,9.5z"/>
<path class="st0" d="M16.1,24.4l6.4-3.7c-0.1-0.3-0.2-0.6-0.2-0.9c0-0.5,0.2-1,0.5-1.4l-5.3-5.6c-0.3,0.2-0.6,0.3-0.9,0.3
	c0,0-0.1,0-0.1,0l-1,4.7l-1.1,5.4C15,23.3,15.6,23.8,16.1,24.4z"/>
<path class="st0" d="M15.4,17.7l-1.1,5.4L15.4,17.7z"/>
<path class="st0" d="M24.6,22.1c-0.7,0-1.4-0.3-1.8-0.9L16.4,25c0.2,0.4,0.3,0.9,0.3,1.5c0,0.6-0.2,1.2-0.5,1.7l8.2,5.8l5.1,3.6
	l-4.7-15.4C24.8,22.1,24.7,22.1,24.6,22.1z"/>
<path class="st0" d="M29.6,37.5l-5.1-3.6L29.6,37.5z"/>
<path class="st0" d="M16.3,28.1l0.1,0.1l8,5.7L16.3,28.1z"/>
<path class="st0" d="M16.4,28.2l13.2,9.3l-5.1-3.6L16.4,28.2z"/>
<path class="st0" d="M18,12.4l5.3,5.6c0.4-0.3,0.8-0.4,1.3-0.4c0.5,0,1,0.2,1.4,0.4l5.5-5.6l3.9-4l-6.9,1.2l-10,1.7
	C18.3,11.7,18.2,12.1,18,12.4z"/>
<path class="st0" d="M35.3,8.3l-6.9,1.2L35.3,8.3z"/>
<path class="st0" d="M42.5,14.3c0.4,0,0.9,0.1,1.2,0.2L46.9,8c-1.6-0.8-3.4-1.2-5.2-1.2c-1.9,0-3.5,0.4-5,1.2l2.7,4.4l1.5,2.3
	C41.4,14.4,41.9,14.3,42.5,14.3z"/>
<path class="st0" d="M45.9,17l5.2-0.5l2.6-0.3c-0.8-3.4-3-6.3-6.1-8l-3.2,6.5C45.1,15.3,45.7,16.1,45.9,17z"/>
<path class="st0" d="M47.5,8.3l-3.2,6.5L47.5,8.3z"/>
<path class="st0" d="M26.8,19.2l4.4-0.5l7.8-0.9c0,0,0,0,0-0.1c0-1.1,0.5-2.1,1.3-2.7l-4-6.3l-0.2-0.3l-3.7,3.8l-6.1,6.3
	C26.6,18.7,26.7,18.9,26.8,19.2z"/>
<path class="st0" d="M36.2,8.4l-3.7,3.8L36.2,8.4z"/>
<path class="st0" d="M36.4,8.6l-0.2-0.3L36.4,8.6z"/>
<path class="st0" d="M45.5,19.4l14.9,10.3c0.2-0.9,0.3-1.8,0.3-2.8c0-4.5-2.7-8.5-6.8-10.1l-8,0.9c0,0,0,0,0,0
	C45.9,18.3,45.8,18.9,45.5,19.4z"/>
<path class="st0" d="M39.1,18.4l-8.4,1l-3.9,0.5c0,0.9-0.6,1.7-1.3,2l4.7,15.6l5.4-9l4.8-8.1C39.8,20,39.3,19.3,39.1,18.4z"/>
<path class="st0" d="M30.3,37.5l-4.7-15.6L30.3,37.5z"/>
<path class="st0" d="M30.7,19.4l8.4-1L30.7,19.4z"/>
<path class="st0" d="M42.5,21.2c-0.5,0-1-0.1-1.5-0.3l-4.8,8.1L30.7,38h15.2l-1.2-6.2l-2-10.7C42.7,21.2,42.6,21.2,42.5,21.2z"/>
<path class="st0" d="M44.8,31.8l-2-10.7L44.8,31.8z"/>
<path class="st0" d="M30.7,38l5.4-9.1L30.7,38z"/>
<g>
	<path class="st1" d="M94,22.6v7.1h-3.5V8.4h10.7c2,0,3.6,0.7,5,2.1c1.4,1.4,2.1,3.1,2.1,5c0,2-0.7,3.6-2.1,5
		c-1.4,1.4-3.1,2.1-5,2.1H94z M94,12v7.1h7.1c1,0,1.8-0.3,2.5-1c0.7-0.7,1-1.5,1-2.5c0-1-0.3-1.8-1-2.5c-0.7-0.7-1.5-1-2.5-1H94z"/>
	<path class="st1" d="M120.2,8.4h3.5v17.8h10.7v3.6h-14.2V8.4z"/>
	<path class="st1" d="M178.6,8.4l14.2,12.8V8.4h3.6v21.4v0v0.1l-14.3-12.8v12.8h-3.5V8.4z"/>
	<path class="st1" d="M226.4,19.1c1.3,1.2,1.9,2.7,1.9,4.5c0,0.8-0.2,1.6-0.5,2.4c-0.3,0.8-0.8,1.4-1.3,2c-0.6,0.6-1.2,1-2,1.3
		c-0.8,0.3-1.6,0.5-2.4,0.5h-11.6V8.4H222c0.8,0,1.6,0.2,2.4,0.5c0.8,0.3,1.4,0.8,2,1.3c0.6,0.6,1,1.2,1.3,2
		c0.3,0.8,0.5,1.6,0.5,2.4C228.2,16.3,227.6,17.8,226.4,19.1z M222,12h-8v5.4h8c0.3,0,0.7-0.1,1-0.2c0.3-0.1,0.6-0.3,0.9-0.6
		c0.2-0.2,0.4-0.5,0.6-0.9c0.1-0.3,0.2-0.7,0.2-1c0-0.3-0.1-0.7-0.2-1c-0.1-0.3-0.3-0.6-0.6-0.9c-0.2-0.2-0.5-0.4-0.9-0.6
		C222.7,12,222.4,12,222,12z M222,26.2c0.3,0,0.7-0.1,1-0.2c0.3-0.1,0.6-0.3,0.9-0.6c0.2-0.2,0.4-0.5,0.6-0.9c0.1-0.3,0.2-0.7,0.2-1
		c0-0.3-0.1-0.7-0.2-1c-0.1-0.3-0.3-0.6-0.6-0.9c-0.2-0.2-0.5-0.4-0.8-0.6c-0.3-0.1-0.7-0.2-1-0.2h-8v5.3H222z"/>
	<path class="st1" d="M155.3,8.4l-10.7,21.4h4l6.7-13.4l4.9,9.8h0l1.8,3.6h4L155.3,8.4z"/>
</g>
</svg>
