<svg width="45" height="45" viewBox="0 0 45 45" fill="none" xmlns="http://www.w3.org/2000/svg"><path  fill="#4DC1FF" d="M30.3563 3.75H14.6438C7.81875 3.75 3.75 7.81875 3.75 14.6438V30.3375C3.75 37.1813 7.81875 41.25 14.6438 41.25H30.3375C37.1625 41.25 41.2313 37.1813 41.2313 30.3563V14.6438C41.25 7.81875 37.1813 3.75 30.3563 3.75ZM14.3063 34.0312C14.3063 34.8 13.6688 35.4375 12.9 35.4375C12.1313 35.4375 11.4938 34.8 11.4938 34.0312V30.15C11.4938 29.3813 12.1313 28.7437 12.9 28.7437C13.6688 28.7437 14.3063 29.3813 14.3063 30.15V34.0312ZM23.9063 34.0312C23.9063 34.8 23.2688 35.4375 22.5 35.4375C21.7313 35.4375 21.0938 34.8 21.0938 34.0312V26.25C21.0938 25.4813 21.7313 24.8438 22.5 24.8438C23.2688 24.8438 23.9063 25.4813 23.9063 26.25V34.0312ZM33.5063 34.0312C33.5063 34.8 32.8688 35.4375 32.1 35.4375C31.3313 35.4375 30.6938 34.8 30.6938 34.0312V22.3688C30.6938 21.6 31.3313 20.9625 32.1 20.9625C32.8688 20.9625 33.5063 21.6 33.5063 22.3688V34.0312ZM33.5063 16.4438C33.5063 17.2125 32.8688 17.85 32.1 17.85C31.3313 17.85 30.6938 17.2125 30.6938 16.4438V14.625C25.9125 19.5375 19.9313 23.0063 13.2375 24.675C13.125 24.7125 13.0125 24.7125 12.9 24.7125C12.2625 24.7125 11.7 24.2812 11.5313 23.6437C11.3438 22.8937 11.7937 22.125 12.5625 21.9375C18.8813 20.3625 24.5063 17.0438 28.9688 12.3563H26.625C25.8563 12.3563 25.2188 11.7188 25.2188 10.95C25.2188 10.1813 25.8563 9.54375 26.625 9.54375H32.1187C32.1938 9.54375 32.25 9.58125 32.325 9.58125C32.4188 9.6 32.5125 9.6 32.6063 9.6375C32.7 9.675 32.775 9.73125 32.8688 9.7875C32.925 9.825 32.9813 9.84375 33.0375 9.88125C33.0563 9.9 33.0563 9.91875 33.075 9.91875C33.15 9.99375 33.2063 10.0687 33.2625 10.1437C33.3188 10.2187 33.375 10.275 33.3938 10.35C33.4313 10.425 33.4313 10.5 33.45 10.5938C33.4688 10.6875 33.5063 10.7812 33.5063 10.8937C33.5063 10.9125 33.525 10.9313 33.525 10.95V16.4438H33.5063Z"/></svg>