<svg width="1035" height="716" viewBox="0 0 1035 716" fill="none" xmlns="http://www.w3.org/2000/svg"><path d="M834.118 619.973C830.887 612.966 827.29 605.59 823.542 598.638C814.847 580.835 799.268 562.498 778.091 545.138C735.353 511.957 660.992 495.43 613.815 498.406C578.344 500.496 546.652 506.517 519.953 516.238L517.952 516.956C492.712 529.164 459.177 535.7 420.162 536.013C407.957 535.744 394.878 534.142 381.474 531.272C344.812 522.954 316.177 504.724 291.716 473.413C276.354 454.31 263.253 434.462 250.664 415.274C245.336 407.16 239.642 398.677 234.573 390.536C232.02 386.519 229.542 382.289 227.431 378.43C225.32 374.571 224.415 372.217 222.778 369.124C213.947 351.279 204.825 332.852 175.768 316.501C155.344 305.469 132.835 296.306 109.837 289.66C86.8394 283.014 63.9144 279.049 42.6861 278.044L42.9131 277.408C64.108 278.424 86.9767 282.364 109.932 288.955C132.888 295.546 155.381 304.629 175.85 315.575C205.197 332.507 214.503 351.119 223.258 369.176C224.895 372.269 226.533 375.362 227.949 378.376C229.949 382.38 232.334 386.422 235.091 390.482C240.823 398.86 246.296 407.264 251.181 415.22C263.771 434.408 276.872 454.256 292.05 473.174C317.213 504.616 344.559 522.267 380.779 530.427C394.039 533.335 406.977 534.923 418.987 535.116C457.833 534.822 491.2 528.303 516.259 516.113L518.26 515.394C545.166 505.718 576.937 499.656 612.419 497.429C660.114 494.399 735.138 511.164 778.242 544.715C799.554 562.195 815.253 580.654 824.059 598.584C827.77 605.642 831.329 613.124 834.635 619.919C837.942 626.713 843.321 637.473 848.384 646.328L847.968 647.494C843.24 638.4 838.587 629.094 834.118 619.973Z" fill="#D8F8FF"/><path d="M835.078 616.078C831.848 609.072 828.251 601.695 824.502 594.743C815.807 576.94 800.229 558.603 779.051 541.244C736.314 508.063 661.953 491.535 614.776 494.511C579.305 496.601 547.613 502.622 520.914 512.343L518.912 513.062C493.673 525.27 460.138 531.805 421.123 532.119C408.918 531.85 395.839 530.247 382.435 527.377C345.773 519.06 317.138 500.829 292.676 469.518C277.315 450.415 264.214 430.567 251.625 411.38C246.297 403.266 240.603 394.782 235.534 386.642C232.981 382.624 230.503 378.395 228.392 374.535C226.281 370.676 225.376 368.323 223.739 365.23C214.908 347.384 205.786 328.957 176.729 312.607C156.305 301.575 133.796 292.412 110.798 285.766C87.8003 279.12 64.8753 275.154 43.6471 274.149L43.8741 273.514C65.069 274.53 87.9377 278.47 110.893 285.061C133.849 291.651 156.342 300.735 176.81 311.68C206.158 328.613 215.464 347.224 224.219 365.282C225.856 368.375 227.493 371.468 228.91 374.482C230.91 378.485 233.295 382.528 236.052 386.588C241.784 394.965 247.257 403.37 252.142 411.326C264.732 430.513 277.833 450.362 293.011 469.279C318.173 500.722 345.52 518.372 381.74 526.532C395 529.441 407.938 531.028 419.948 531.221C458.794 530.927 492.161 524.408 517.22 512.218L519.221 511.5C546.127 501.823 577.898 495.761 613.38 493.535C661.075 490.505 736.099 507.269 779.203 540.82C800.514 558.3 816.214 576.759 825.02 594.689C828.731 601.747 832.29 609.23 835.596 616.024C838.902 622.819 844.282 633.579 849.345 642.434L848.929 643.599C844.2 634.505 839.548 625.199 835.078 616.078Z" fill="#D8F8FF"/><path d="M839.387 609.414C836.156 602.408 832.559 595.031 828.811 588.079C820.116 570.276 804.538 551.939 783.36 534.58C740.622 501.399 666.262 484.871 619.085 487.847C583.614 489.937 551.921 495.958 525.222 505.679L523.221 506.398C497.981 518.606 464.446 525.141 425.432 525.455C413.226 525.186 400.147 523.583 386.744 520.713C350.081 512.396 321.446 494.165 296.985 462.854C281.624 443.751 268.522 423.903 255.933 404.716C250.605 396.602 244.911 388.118 239.843 379.978C237.289 375.96 234.812 371.731 232.7 367.871C230.589 364.012 229.685 361.658 228.048 358.566C219.217 340.72 210.095 322.293 181.037 305.943C160.613 294.911 138.105 285.747 115.107 279.102C92.1089 272.456 69.1839 268.49 47.9557 267.485L48.1827 266.85C69.3776 267.866 92.2463 271.806 115.202 278.397C138.157 284.987 160.65 294.071 181.119 305.016C210.467 321.949 219.772 340.56 228.528 358.618C230.165 361.71 231.802 364.803 233.218 367.817C235.218 371.821 237.603 375.864 240.36 379.924C246.092 388.301 251.565 396.706 256.451 404.662C269.04 423.849 282.141 443.697 297.32 462.615C322.482 494.057 349.828 511.708 386.049 519.868C399.309 522.776 412.247 524.364 424.257 524.557C463.102 524.263 496.469 517.744 521.528 505.554L523.53 504.836C550.436 495.159 582.207 489.097 617.688 486.87C665.383 483.841 740.407 500.605 783.511 534.156C804.823 551.636 820.523 570.095 829.329 588.025C833.039 595.083 836.598 602.565 839.905 609.36C843.211 616.155 848.591 626.915 853.653 635.77L853.237 636.935C848.509 627.841 843.856 618.535 839.387 609.414Z" fill="#D8F8FF"/><path d="M843.699 602.75C840.469 595.744 836.872 588.367 833.123 581.415C824.428 563.612 808.85 545.275 787.672 527.916C744.935 494.735 670.574 478.207 623.397 481.183C587.926 483.273 556.234 489.294 529.535 499.015L527.533 499.734C502.294 511.942 468.759 518.477 429.744 518.791C417.539 518.522 404.46 516.919 391.056 514.049C354.394 505.732 325.759 487.501 301.298 456.19C285.936 437.087 272.835 417.239 260.246 398.052C254.918 389.938 249.224 381.454 244.155 373.314C241.602 369.296 239.124 365.067 237.013 361.207C234.902 357.348 233.997 354.994 232.36 351.902C223.529 334.056 214.407 315.629 185.35 299.279C164.926 288.247 142.417 279.083 119.419 272.438C96.4214 265.792 73.4964 261.826 52.2682 260.821L52.4952 260.186C73.6901 261.202 96.5588 265.142 119.514 271.733C142.47 278.323 164.963 287.407 185.432 298.352C214.779 315.285 224.085 333.896 232.84 351.954C234.477 355.046 236.115 358.139 237.531 361.153C239.531 365.157 241.916 369.2 244.673 373.26C250.405 381.637 255.878 390.042 260.763 397.998C273.353 417.185 286.454 437.033 301.632 455.951C326.795 487.393 354.141 505.044 390.361 513.204C403.621 516.112 416.559 517.7 428.569 517.893C467.415 517.599 500.782 511.08 525.841 498.89L527.842 498.172C554.748 488.495 586.519 482.433 622.001 480.206C669.696 477.177 744.72 493.941 787.824 527.492C809.135 544.972 824.835 563.431 833.641 581.361C837.352 588.419 840.911 595.901 844.217 602.696C847.523 609.491 852.903 620.251 857.966 629.106L857.55 630.271C852.821 621.177 848.169 611.871 843.699 602.75Z" fill="#D8F8FF"/><path d="M848.008 596.09C844.777 589.083 841.18 581.707 837.432 574.755C828.737 556.952 813.159 538.615 791.981 521.256C749.243 488.075 674.883 471.547 627.706 474.523C592.235 476.613 560.542 482.634 533.844 492.355L531.842 493.073C506.602 505.281 473.068 511.817 434.053 512.131C421.847 511.862 408.769 510.259 395.365 507.389C358.703 499.071 330.067 480.841 305.606 449.53C290.245 430.427 277.144 410.579 264.554 391.391C259.227 383.278 253.532 374.794 248.464 366.653C245.91 362.636 243.433 358.407 241.321 354.547C239.21 350.688 238.306 348.334 236.669 345.241C227.838 327.396 218.716 308.969 189.659 292.618C169.234 281.587 146.726 272.423 123.728 265.777C100.73 259.132 77.805 255.166 56.5768 254.161L56.8038 253.525C77.9986 254.542 100.867 258.482 123.823 265.072C146.779 271.663 169.271 280.746 189.74 291.692C219.088 308.624 228.393 327.236 237.149 345.293C238.786 348.386 240.423 351.479 241.839 354.493C243.839 358.497 246.224 362.539 248.981 366.599C254.713 374.977 260.186 383.382 265.072 391.337C277.661 410.525 290.762 430.373 305.941 449.291C331.103 480.733 358.45 498.384 394.67 506.544C407.93 509.452 420.868 511.04 432.878 511.233C471.723 510.939 505.09 504.42 530.149 492.23L532.151 491.511C559.057 481.835 590.828 475.773 626.309 473.546C674.005 470.517 749.028 487.281 792.132 520.832C813.444 538.312 829.144 556.771 837.95 574.701C841.66 581.759 845.22 589.241 848.526 596.036C851.832 602.83 857.212 613.59 862.274 622.446L861.858 623.611C857.13 614.517 852.477 605.211 848.008 596.09Z" fill="#D8F8FF"/><path d="M852.317 589.426C849.086 582.419 845.489 575.043 841.741 568.091C833.046 550.288 817.467 531.951 796.29 514.591C753.552 481.41 679.192 464.883 632.014 467.859C596.543 469.949 564.851 475.97 538.152 485.691L536.151 486.409C510.911 498.617 477.376 505.153 438.361 505.466C426.156 505.198 413.077 503.595 399.674 500.725C363.011 492.407 334.376 474.177 309.915 442.866C294.553 423.763 281.452 403.915 268.863 384.727C263.535 376.614 257.841 368.13 252.772 359.989C250.219 355.972 247.741 351.743 245.63 347.883C243.519 344.024 242.615 341.67 240.977 338.577C232.146 320.732 223.024 302.305 193.967 285.954C173.543 274.923 151.035 265.759 128.037 259.113C105.039 252.467 82.1136 248.502 60.8854 247.497L61.1124 246.861C82.3072 247.877 105.176 251.818 128.132 258.408C151.087 264.999 173.58 274.082 194.049 285.028C223.397 301.96 232.702 320.572 241.457 338.629C243.095 341.722 244.732 344.815 246.148 347.829C248.148 351.833 250.533 355.875 253.29 359.935C259.022 368.313 264.495 376.718 269.381 384.673C281.97 403.861 295.071 423.709 310.249 442.627C335.412 474.069 362.758 491.72 398.978 499.88C412.238 502.788 425.176 504.376 437.186 504.569C476.032 504.275 509.399 497.756 534.458 485.566L536.459 484.847C563.366 475.171 595.136 469.109 630.618 466.882C678.313 463.853 753.337 480.617 796.441 514.168C817.753 531.648 833.453 550.107 842.258 568.037C845.969 575.095 849.528 582.577 852.834 589.372C856.141 596.166 861.52 606.926 866.583 615.781L866.167 616.947C861.439 607.853 856.786 598.547 852.317 589.426Z" fill="#D8F8FF"/><path d="M856.629 582.762C853.399 575.755 849.802 568.379 846.053 561.427C837.358 543.624 821.78 525.287 800.602 507.927C757.864 474.746 683.504 458.219 636.327 461.195C600.856 463.285 569.163 469.306 542.465 479.027L540.463 479.745C515.224 491.953 481.689 498.489 442.674 498.802C430.468 498.533 417.39 496.931 403.986 494.061C367.324 485.743 338.689 467.513 314.227 436.202C298.866 417.099 285.765 397.251 273.175 378.063C267.848 369.949 262.154 361.466 257.085 353.325C254.531 349.308 252.054 345.079 249.943 341.219C247.831 337.36 246.927 335.006 245.29 331.913C236.459 314.068 227.337 295.641 198.28 279.29C177.855 268.259 155.347 259.095 132.349 252.449C109.351 245.803 86.4261 241.838 65.1979 240.833L65.4249 240.197C86.6197 241.213 109.488 245.154 132.444 251.744C155.4 258.335 177.892 267.418 198.361 278.364C227.709 295.296 237.014 313.908 245.77 331.965C247.407 335.058 249.044 338.151 250.46 341.165C252.461 345.169 254.845 349.211 257.603 353.271C263.334 361.649 268.808 370.053 273.693 378.009C286.282 397.197 299.384 417.045 314.562 435.963C339.724 467.405 367.071 485.056 403.291 493.216C416.551 496.124 429.489 497.712 441.499 497.905C480.345 497.611 513.711 491.092 538.77 478.902L540.772 478.183C567.678 468.507 599.449 462.445 634.931 460.218C682.626 457.188 757.649 473.953 800.753 507.504C822.065 524.984 837.765 543.443 846.571 561.373C850.282 568.431 853.841 575.913 857.147 582.708C860.453 589.502 865.833 600.262 870.896 609.117L870.479 610.283C865.751 601.189 861.098 591.883 856.629 582.762Z" fill="#D8F8FF"/><path d="M860.938 576.098C857.707 569.091 854.11 561.715 850.362 554.763C841.667 536.96 826.088 518.623 804.911 501.263C762.173 468.082 687.813 451.555 640.635 454.53C605.164 456.621 573.472 462.642 546.773 472.363L544.772 473.081C519.532 485.289 485.997 491.825 446.982 492.138C434.777 491.869 421.698 490.266 408.295 487.397C371.632 479.079 342.997 460.849 318.536 429.538C303.174 410.435 290.073 390.587 277.484 371.399C272.156 363.285 266.462 354.802 261.393 346.661C258.84 342.644 256.362 338.414 254.251 334.555C252.14 330.696 251.236 328.342 249.599 325.249C240.767 307.404 231.645 288.977 202.588 272.626C182.164 261.594 159.656 252.431 136.658 245.785C113.66 239.139 90.7347 235.174 69.5064 234.169L69.7335 233.533C90.9283 234.549 113.797 238.489 136.753 245.08C159.708 251.671 182.201 260.754 202.67 271.7C232.018 288.632 241.323 307.244 250.079 325.301C251.716 328.394 253.353 331.487 254.769 334.501C256.769 338.505 259.154 342.547 261.911 346.607C267.643 354.985 273.116 363.389 278.002 371.345C290.591 390.533 303.692 410.381 318.87 429.299C344.033 460.741 371.379 478.392 407.6 486.552C420.859 489.46 433.797 491.048 445.807 491.241C484.653 490.947 518.02 484.428 543.079 472.238L545.08 471.519C571.987 461.842 603.757 455.781 639.239 453.554C686.934 450.524 761.958 467.289 805.062 500.84C826.374 518.32 842.074 536.779 850.88 554.709C854.59 561.767 858.149 569.249 861.455 576.044C864.762 582.838 870.141 593.598 875.204 602.453L874.788 603.619C870.06 594.524 865.407 585.219 860.938 576.098Z" fill="#D8F8FF"/><path d="M865.246 569.437C862.016 562.431 858.419 555.055 854.67 548.102C845.975 530.299 830.397 511.963 809.219 494.603C766.482 461.422 692.121 444.895 644.944 447.87C609.473 449.961 577.781 455.982 551.082 465.703L549.08 466.421C523.841 478.629 490.306 485.164 451.291 485.478C439.086 485.209 426.007 483.606 412.603 480.737C375.941 472.419 347.306 454.189 322.844 422.878C307.483 403.775 294.382 383.927 281.793 364.739C276.465 356.625 270.771 348.142 265.702 340.001C263.149 335.984 260.671 331.754 258.56 327.895C256.449 324.035 255.544 321.682 253.907 318.589C245.076 300.744 235.954 282.317 206.897 265.966C186.473 254.934 163.964 245.771 140.966 239.125C117.968 232.479 95.0433 228.513 73.815 227.509L74.042 226.873C95.2369 227.889 118.106 231.829 141.061 238.42C164.017 245.011 186.509 254.094 206.978 265.04C236.326 281.972 245.632 300.584 254.387 318.641C256.024 321.734 257.661 324.827 259.078 327.841C261.078 331.845 263.463 335.887 266.22 339.947C271.952 348.325 277.425 356.729 282.31 364.685C294.9 383.873 308.001 403.721 323.179 422.639C348.341 454.081 375.688 471.732 411.908 479.891C425.168 482.8 438.106 484.388 450.116 484.581C488.962 484.286 522.329 477.768 547.387 465.577L549.389 464.859C576.295 455.182 608.066 449.121 643.548 446.894C691.243 443.864 766.267 460.629 809.371 494.18C830.682 511.66 846.382 530.118 855.188 548.048C858.899 555.107 862.458 562.589 865.764 569.383C869.07 576.178 874.45 586.938 879.513 595.793L879.097 596.958C874.368 587.864 869.716 578.558 865.246 569.437Z" fill="#D8F8FF"/><path d="M869.555 562.773C866.324 555.767 862.727 548.391 858.979 541.438C850.284 523.635 834.706 505.299 813.528 487.939C770.79 454.758 696.43 438.231 649.253 441.206C613.782 443.297 582.089 449.318 555.39 459.039L553.389 459.757C528.149 471.965 494.614 478.5 455.6 478.814C443.394 478.545 430.315 476.942 416.912 474.073C380.249 465.755 351.614 447.525 327.153 416.214C311.792 397.111 298.69 377.263 286.101 358.075C280.773 349.961 275.079 341.478 270.011 333.337C267.457 329.32 264.98 325.09 262.868 321.231C260.757 317.371 259.853 315.018 258.216 311.925C249.385 294.08 240.263 275.653 211.205 259.302C190.781 248.27 168.273 239.107 145.275 232.461C122.277 225.815 99.3519 221.849 78.1236 220.844L78.3506 220.209C99.5455 221.225 122.414 225.165 145.37 231.756C168.325 238.347 190.818 247.43 211.287 258.376C240.635 275.308 249.94 293.92 258.696 311.977C260.333 315.07 261.97 318.163 263.386 321.177C265.386 325.181 267.771 329.223 270.528 333.283C276.26 341.661 281.733 350.065 286.619 358.021C299.208 377.209 312.309 397.057 327.488 415.975C352.65 447.417 379.996 465.068 416.217 473.227C429.477 476.136 442.415 477.724 454.425 477.917C493.27 477.622 526.637 471.104 551.696 458.913L553.698 458.195C580.604 448.518 612.375 442.457 647.856 440.23C695.551 437.2 770.575 453.965 813.679 487.515C834.991 504.996 850.691 523.454 859.497 541.384C863.207 548.443 866.766 555.925 870.073 562.719C873.379 569.514 878.759 580.274 883.821 589.129L883.405 590.294C878.677 581.2 874.024 571.894 869.555 562.773Z" fill="#D8F8FF"/><path d="M873.863 556.109C870.633 549.103 867.036 541.727 863.288 534.774C854.592 516.971 839.014 498.634 817.837 481.275C775.099 448.094 700.738 431.566 653.561 434.542C618.09 436.633 586.398 442.654 559.699 452.375L557.698 453.093C532.458 465.301 498.923 471.836 459.908 472.15C447.703 471.881 434.624 470.278 421.22 467.409C384.558 459.091 355.923 440.861 331.462 409.55C316.1 390.447 302.999 370.598 290.41 351.411C285.082 343.297 279.388 334.814 274.319 326.673C271.766 322.655 269.288 318.426 267.177 314.567C265.066 310.707 264.162 308.354 262.524 305.261C253.693 287.416 244.571 268.989 215.514 252.638C195.09 241.606 172.581 232.443 149.583 225.797C126.585 219.151 103.66 215.185 82.4322 214.18L82.6592 213.545C103.854 214.561 126.723 218.501 149.678 225.092C172.634 231.682 195.127 240.766 215.596 251.712C244.944 268.644 254.249 287.256 263.004 305.313C264.641 308.406 266.279 311.499 267.695 314.513C269.695 318.517 272.08 322.559 274.837 326.619C280.569 334.997 286.042 343.401 290.928 351.357C303.517 370.545 316.618 390.393 331.796 409.311C356.959 440.753 384.305 458.403 420.525 466.563C433.785 469.472 446.723 471.06 458.733 471.253C497.579 470.958 530.946 464.44 556.005 452.249L558.006 451.531C584.912 441.854 616.683 435.792 652.165 433.566C699.86 430.536 774.884 447.301 817.988 480.851C839.299 498.331 854.999 516.79 863.805 534.72C867.516 541.779 871.075 549.261 874.381 556.055C877.687 562.85 883.067 573.61 888.13 582.465L887.714 583.63C882.985 574.536 878.333 565.23 873.863 556.109Z" fill="#D8F8FF"/><path d="M878.172 549.445C874.942 542.439 871.345 535.063 867.596 528.11C858.901 510.307 843.323 491.97 822.145 474.611C779.407 441.43 705.047 424.902 657.87 427.878C622.399 429.969 590.706 435.99 564.008 445.71L562.006 446.429C536.767 458.637 503.232 465.172 464.217 465.486C452.011 465.217 438.933 463.614 425.529 460.745C388.867 452.427 360.232 434.197 335.77 402.885C320.409 383.783 307.308 363.934 294.718 344.747C289.391 336.633 283.696 328.15 278.628 320.009C276.074 315.991 273.597 311.762 271.486 307.903C269.374 304.043 268.47 301.69 266.833 298.597C258.002 280.751 248.88 262.325 219.823 245.974C199.398 234.942 176.89 225.779 153.892 219.133C130.894 212.487 107.969 208.521 86.7408 207.516L86.9678 206.881C108.163 207.897 131.031 211.837 153.987 218.428C176.943 225.018 199.435 234.102 219.904 245.048C249.252 261.98 258.557 280.592 267.313 298.649C268.95 301.742 270.587 304.835 272.003 307.849C274.003 311.853 276.388 315.895 279.145 319.955C284.877 328.332 290.351 336.737 295.236 344.693C307.825 363.881 320.927 383.729 336.105 402.647C361.267 434.089 388.614 451.739 424.834 459.899C438.094 462.808 451.032 464.396 463.042 464.589C501.888 464.294 535.254 457.776 560.313 445.585L562.315 444.867C589.221 435.19 620.992 429.128 656.474 426.902C704.169 423.872 779.192 440.637 822.296 474.187C843.608 491.667 859.308 510.126 868.114 528.056C871.824 535.115 875.384 542.597 878.69 549.391C881.996 556.186 887.376 566.946 892.439 575.801L892.022 576.966C887.294 567.872 882.641 558.566 878.172 549.445Z" fill="#D8F8FF"/><path d="M882.481 542.785C879.25 535.779 875.653 528.403 871.905 521.45C863.21 503.647 847.631 485.31 826.454 467.951C783.716 434.77 709.356 418.242 662.178 421.218C626.707 423.308 595.015 429.329 568.316 439.05L566.315 439.769C541.075 451.977 507.54 458.512 468.525 458.826C456.32 458.557 443.241 456.954 429.838 454.085C393.175 445.767 364.54 427.536 340.079 396.225C324.717 377.122 311.616 357.274 299.027 338.087C293.699 329.973 288.005 321.489 282.936 313.349C280.383 309.331 277.905 305.102 275.794 301.242C273.683 297.383 272.779 295.03 271.142 291.937C262.31 274.091 253.188 255.664 224.131 239.314C203.707 228.282 181.199 219.119 158.201 212.473C135.203 205.827 112.278 201.861 91.0494 200.856L91.2764 200.221C112.471 201.237 135.34 205.177 158.296 211.768C181.251 218.358 203.744 227.442 224.213 238.387C253.561 255.32 262.866 273.931 271.621 291.989C273.259 295.082 274.896 298.175 276.312 301.189C278.312 305.192 280.697 309.235 283.454 313.295C289.186 321.672 294.659 330.077 299.545 338.033C312.134 357.22 325.235 377.069 340.413 395.987C365.576 427.429 392.922 445.079 429.143 453.239C442.402 456.148 455.34 457.735 467.35 457.928C506.196 457.634 539.563 451.115 564.622 438.925L566.623 438.207C593.53 428.53 625.3 422.468 660.782 420.242C708.477 417.212 783.501 433.976 826.605 467.527C847.917 485.007 863.617 503.466 872.423 521.396C876.133 528.455 879.692 535.937 882.998 542.731C886.305 549.526 891.684 560.286 896.747 569.141L896.331 570.306C891.603 561.212 886.95 551.906 882.481 542.785Z" fill="#D8F8FF"/><path d="M886.793 536.121C883.563 529.115 879.966 521.738 876.217 514.786C867.522 496.983 851.944 478.646 830.766 461.287C788.029 428.106 713.668 411.578 666.491 414.554C631.02 416.644 599.327 422.665 572.629 432.386L570.627 433.105C545.388 445.313 511.853 451.848 472.838 452.162C460.633 451.893 447.554 450.29 434.15 447.42C397.488 439.103 368.853 420.872 344.391 389.561C329.03 370.458 315.929 350.61 303.339 331.423C298.012 323.309 292.318 314.825 287.249 306.685C284.695 302.667 282.218 298.438 280.107 294.578C277.995 290.719 277.091 288.366 275.454 285.273C266.623 267.427 257.501 249 228.444 232.65C208.019 221.618 185.511 212.455 162.513 205.809C139.515 199.163 116.59 195.197 95.3619 194.192L95.5889 193.557C116.784 194.573 139.653 198.513 162.608 205.104C185.564 211.694 208.056 220.778 228.525 231.723C257.873 248.656 267.178 267.267 275.934 285.325C277.571 288.418 279.208 291.51 280.624 294.525C282.625 298.528 285.009 302.571 287.767 306.631C293.499 315.008 298.972 323.413 303.857 331.369C316.447 350.556 329.548 370.404 344.726 389.322C369.888 420.764 397.235 438.415 433.455 446.575C446.715 449.483 459.653 451.071 471.663 451.264C510.509 450.97 543.876 444.451 568.934 432.261L570.936 431.543C597.842 421.866 629.613 415.804 665.095 413.577C712.79 410.548 787.813 427.312 830.918 460.863C852.229 478.343 867.929 496.802 876.735 514.732C880.446 521.79 884.005 529.273 887.311 536.067C890.617 542.862 895.997 553.622 901.06 562.477L900.643 563.642C895.915 554.548 891.263 545.242 886.793 536.121Z" fill="#D8F8FF"/><path d="M891.102 529.457C887.871 522.451 884.274 515.074 880.526 508.122C871.831 490.319 856.252 471.982 835.075 454.623C792.337 421.442 717.977 404.914 670.799 407.89C635.328 409.98 603.636 416.001 576.937 425.722L574.936 426.441C549.696 438.649 516.161 445.184 477.146 445.498C464.941 445.229 451.862 443.626 438.459 440.756C401.796 432.439 373.161 414.208 348.7 382.897C333.338 363.794 320.237 343.946 307.648 324.759C302.32 316.645 296.626 308.161 291.557 300.021C289.004 296.003 286.526 291.774 284.415 287.914C282.304 284.055 281.4 281.701 279.763 278.608C270.931 260.763 261.809 242.336 232.752 225.986C212.328 214.954 189.82 205.79 166.822 199.145C143.824 192.499 120.899 188.533 99.6705 187.528L99.8975 186.893C121.092 187.909 143.961 191.849 166.917 198.439C189.872 205.03 212.365 214.114 232.834 225.059C262.182 241.992 271.487 260.603 280.243 278.66C281.88 281.753 283.517 284.846 284.933 287.86C286.933 291.864 289.318 295.906 292.075 299.967C297.807 308.344 303.28 316.749 308.166 324.705C320.755 343.892 333.856 363.74 349.035 382.658C374.197 414.1 401.543 431.751 437.764 439.911C451.023 442.819 463.961 444.407 475.971 444.6C514.817 444.306 548.184 437.787 573.243 425.597L575.244 424.879C602.151 415.202 633.921 409.14 669.403 406.913C717.098 403.884 792.122 420.648 835.226 454.199C856.538 471.679 872.238 490.138 881.044 508.068C884.754 515.126 888.313 522.608 891.62 529.403C894.926 536.198 900.305 546.957 905.368 555.813L904.952 556.978C900.224 547.884 895.571 538.578 891.102 529.457Z" fill="#D8F8FF"/><path d="M895.41 522.793C892.18 515.786 888.583 508.41 884.834 501.458C876.139 483.655 860.561 465.318 839.383 447.959C796.646 414.778 722.285 398.25 675.108 401.226C639.637 403.316 607.945 409.337 581.246 419.058L579.244 419.776C554.005 431.985 520.47 438.52 481.455 438.834C469.25 438.565 456.171 436.962 442.767 434.092C406.105 425.775 377.47 407.544 353.009 376.233C337.647 357.13 324.546 337.282 311.957 318.094C306.629 309.981 300.935 301.497 295.866 293.356C293.313 289.339 290.835 285.11 288.724 281.25C286.613 277.391 285.708 275.037 284.071 271.944C275.24 254.099 266.118 235.672 237.061 219.322C216.637 208.29 194.128 199.126 171.13 192.481C148.132 185.835 125.207 181.869 103.979 180.864L104.206 180.228C125.401 181.245 148.27 185.185 171.225 191.775C194.181 198.366 216.674 207.449 237.142 218.395C266.49 235.327 275.796 253.939 284.551 271.996C286.188 275.089 287.826 278.182 289.242 281.196C291.242 285.2 293.627 289.242 296.384 293.303C302.116 301.68 307.589 310.085 312.474 318.041C325.064 337.228 338.165 357.076 353.343 375.994C378.505 407.436 405.852 425.087 442.072 433.247C455.332 436.155 468.27 437.743 480.28 437.936C519.126 437.642 552.493 431.123 577.552 418.933L579.553 418.215C606.459 408.538 638.23 402.476 673.712 400.249C721.407 397.22 796.431 413.984 839.535 447.535C860.846 465.015 876.546 483.474 885.352 501.404C889.063 508.462 892.622 515.944 895.928 522.739C899.234 529.533 904.614 540.293 909.677 549.149L909.261 550.314C904.532 541.22 899.88 531.914 895.41 522.793Z" fill="#D8F8FF"/><path d="M899.719 516.133C896.488 509.126 892.891 501.75 889.143 494.798C880.448 476.995 864.87 458.658 843.692 441.299C800.954 408.118 726.594 391.59 679.417 394.566C643.946 396.656 612.253 402.677 585.554 412.398L583.553 413.116C558.313 425.324 524.779 431.86 485.764 432.174C473.558 431.905 460.479 430.302 447.076 427.432C410.413 419.114 381.778 400.884 357.317 369.573C341.956 350.47 328.854 330.622 316.265 311.434C310.938 303.321 305.243 294.837 300.175 286.696C297.621 282.679 295.144 278.45 293.032 274.59C290.921 270.731 290.017 268.377 288.38 265.284C279.549 247.439 270.427 229.012 241.369 212.661C220.945 201.63 198.437 192.466 175.439 185.82C152.441 179.174 129.516 175.209 108.288 174.204L108.515 173.568C129.71 174.584 152.578 178.525 175.534 185.115C198.489 191.706 220.982 200.789 241.451 211.735C270.799 228.667 280.104 247.279 288.86 265.336C290.497 268.429 292.134 271.522 293.55 274.536C295.55 278.54 297.935 282.582 300.692 286.642C306.424 295.02 311.897 303.425 316.783 311.38C329.372 330.568 342.473 350.416 357.652 369.334C382.814 400.776 410.161 418.427 446.381 426.587C459.641 429.495 472.579 431.083 484.589 431.276C523.434 430.982 556.801 424.463 581.86 412.273L583.862 411.554C610.768 401.878 642.539 395.816 678.02 393.589C725.716 390.56 800.739 407.324 843.843 440.875C865.155 458.355 880.855 476.814 889.661 494.744C893.371 501.802 896.931 509.284 900.237 516.079C903.543 522.873 908.923 533.633 913.985 542.488L913.569 543.654C908.841 534.56 904.188 525.254 899.719 516.133Z" fill="#D8F8FF"/><path d="M904.028 509.469C900.797 502.462 897.2 495.086 893.452 488.134C884.757 470.331 869.178 451.994 848.001 434.635C805.263 401.454 730.902 384.926 683.725 387.902C648.254 389.992 616.562 396.013 589.863 405.734L587.862 406.452C562.622 418.66 529.087 425.196 490.072 425.51C477.867 425.241 464.788 423.638 451.385 420.768C414.722 412.45 386.087 394.22 361.626 362.909C346.264 343.806 333.163 323.958 320.574 304.77C315.246 296.657 309.552 288.173 304.483 280.032C301.93 276.015 299.452 271.786 297.341 267.926C295.23 264.067 294.326 261.713 292.688 258.62C283.857 240.775 274.735 222.348 245.678 205.997C225.254 194.966 202.746 185.802 179.748 179.156C156.75 172.51 133.825 168.545 112.596 167.54L112.823 166.904C134.018 167.92 156.887 171.861 179.842 178.451C202.798 185.042 225.291 194.125 245.76 205.071C275.108 222.003 284.413 240.615 293.168 258.672C294.806 261.765 296.443 264.858 297.859 267.872C299.859 271.876 302.244 275.918 305.001 279.978C310.733 288.356 316.206 296.761 321.092 304.716C333.681 323.904 346.782 343.752 361.96 362.67C387.123 394.112 414.469 411.763 450.689 419.923C463.949 422.831 476.887 424.419 488.897 424.612C527.743 424.318 561.11 417.799 586.169 405.609L588.17 404.89C615.077 395.214 646.847 389.152 682.329 386.925C730.024 383.896 805.048 400.66 848.152 434.211C869.464 451.691 885.163 470.15 893.969 488.08C897.68 495.138 901.239 502.62 904.545 509.415C907.852 516.209 913.231 526.969 918.294 535.824L917.878 536.99C913.15 527.896 908.497 518.59 904.028 509.469Z" fill="#D8F8FF"/><path d="M908.336 502.805C905.106 495.798 901.509 488.422 897.76 481.47C889.065 463.667 873.487 445.33 852.309 427.97C809.571 394.789 735.211 378.262 688.034 381.238C652.563 383.328 620.87 389.349 594.172 399.07L592.17 399.788C566.931 411.996 533.396 418.532 494.381 418.845C482.175 418.576 469.097 416.974 455.693 414.104C419.031 405.786 390.396 387.556 365.934 356.245C350.573 337.142 337.472 317.294 324.882 298.106C319.555 289.992 313.861 281.509 308.792 273.368C306.238 269.351 303.761 265.122 301.65 261.262C299.538 257.403 298.634 255.049 296.997 251.956C288.166 234.111 279.044 215.684 249.987 199.333C229.562 188.302 207.054 179.138 184.056 172.492C161.058 165.846 138.133 161.881 116.905 160.876L117.132 160.24C138.327 161.256 161.195 165.197 184.151 171.787C207.107 178.378 229.599 187.461 250.068 198.407C279.416 215.339 288.721 233.951 297.477 252.008C299.114 255.101 300.751 258.194 302.167 261.208C304.168 265.212 306.552 269.254 309.31 273.314C315.042 281.692 320.515 290.096 325.4 298.052C337.989 317.24 351.091 337.088 366.269 356.006C391.431 387.448 418.778 405.099 454.998 413.259C468.258 416.167 481.196 417.755 493.206 417.948C532.052 417.654 565.419 411.135 590.477 398.945L592.479 398.226C619.385 388.55 651.156 382.488 686.638 380.261C734.333 377.231 809.356 393.996 852.461 427.547C873.772 445.027 889.472 463.486 898.278 481.416C901.989 488.474 905.548 495.956 908.854 502.751C912.16 509.545 917.54 520.305 922.603 529.16L922.186 530.326C917.458 521.232 912.805 511.926 908.336 502.805Z" fill="#D8F8FF"/><path d="M912.649 496.141C909.418 489.134 905.821 481.758 902.073 474.806C893.378 457.003 877.799 438.666 856.622 421.306C813.884 388.125 739.524 371.598 692.346 374.574C656.875 376.664 625.183 382.685 598.484 392.406L596.483 393.124C571.243 405.332 537.708 411.868 498.693 412.181C486.488 411.912 473.409 410.31 460.006 407.44C423.343 399.122 394.708 380.892 370.247 349.581C354.885 330.478 341.784 310.63 329.195 291.442C323.867 283.328 318.173 274.845 313.104 266.704C310.551 262.687 308.073 258.458 305.962 254.598C303.851 250.739 302.947 248.385 301.309 245.292C292.478 227.447 283.356 209.02 254.299 192.669C233.875 181.637 211.367 172.474 188.369 165.828C165.371 159.182 142.446 155.217 121.217 154.212L121.444 153.576C142.639 154.592 165.508 158.532 188.464 165.123C211.419 171.714 233.912 180.797 254.381 191.743C283.729 208.675 293.034 227.287 301.789 245.344C303.427 248.437 305.064 251.53 306.48 254.544C308.48 258.548 310.865 262.59 313.622 266.65C319.354 275.028 324.827 283.432 329.713 291.388C342.302 310.576 355.403 330.424 370.581 349.342C395.744 380.784 423.09 398.435 459.311 406.595C472.57 409.503 485.508 411.091 497.518 411.284C536.364 410.99 569.731 404.471 594.79 392.281L596.791 391.562C623.698 381.886 655.468 375.824 690.95 373.597C738.645 370.567 813.669 387.332 856.773 420.883C878.085 438.363 893.785 456.822 902.59 474.752C906.301 481.81 909.86 489.292 913.166 496.087C916.473 502.881 921.852 513.641 926.915 522.496L926.499 523.662C921.771 514.567 917.118 505.262 912.649 496.141Z" fill="#D8F8FF"/><path d="M916.957 489.477C913.727 482.47 910.13 475.094 906.381 468.142C897.686 450.339 882.108 432.002 860.93 414.642C818.193 381.461 743.832 364.934 696.655 367.909C661.184 370 629.491 376.021 602.793 385.742L600.791 386.46C575.552 398.668 542.017 405.204 503.002 405.517C490.797 405.248 477.718 403.645 464.314 400.776C427.652 392.458 399.017 374.228 374.555 342.917C359.194 323.814 346.093 303.966 333.503 284.778C328.176 276.664 322.482 268.181 317.413 260.04C314.86 256.023 312.382 251.793 310.271 247.934C308.16 244.074 307.255 241.721 305.618 238.628C296.787 220.783 287.665 202.356 258.608 186.005C238.184 174.973 215.675 165.81 192.677 159.164C169.679 152.518 146.754 148.552 125.526 147.548L125.753 146.912C146.948 147.928 169.817 151.868 192.772 158.459C215.728 165.05 238.22 174.133 258.689 185.079C288.037 202.011 297.343 220.623 306.098 238.68C307.735 241.773 309.372 244.866 310.788 247.88C312.789 251.884 315.173 255.926 317.931 259.986C323.663 268.364 329.136 276.768 334.021 284.724C346.611 303.912 359.712 323.76 374.89 342.678C400.052 374.12 427.399 391.771 463.619 399.931C476.879 402.839 489.817 404.427 501.827 404.62C540.673 404.325 574.04 397.807 599.098 385.617L601.1 384.898C628.006 375.221 659.777 369.16 695.259 366.933C742.954 363.903 817.977 380.668 861.082 414.219C882.393 431.699 898.093 450.158 906.899 468.088C910.61 475.146 914.169 482.628 917.475 489.423C920.781 496.217 926.161 506.977 931.224 515.832L930.807 516.997C926.079 507.903 921.427 498.598 916.957 489.477Z" fill="#D8F8FF"/><path d="M921.266 482.816C918.035 475.81 914.438 468.434 910.69 461.481C901.995 443.678 886.416 425.342 865.239 407.982C822.501 374.801 748.141 358.274 700.963 361.249C665.493 363.34 633.8 369.361 607.101 379.082L605.1 379.8C579.86 392.008 546.325 398.543 507.31 398.857C495.105 398.588 482.026 396.985 468.623 394.116C431.96 385.798 403.325 367.568 378.864 336.257C363.503 317.154 350.401 297.306 337.812 278.118C332.484 270.004 326.79 261.521 321.721 253.38C319.168 249.363 316.69 245.133 314.579 241.274C312.468 237.414 311.564 235.061 309.927 231.968C301.095 214.123 291.973 195.696 262.916 179.345C242.492 168.313 219.984 159.15 196.986 152.504C173.988 145.858 151.063 141.892 129.835 140.888L130.062 140.252C151.256 141.268 174.125 145.208 197.081 151.799C220.036 158.39 242.529 167.473 262.998 178.419C292.346 195.351 301.651 213.963 310.407 232.02C312.044 235.113 313.681 238.206 315.097 241.22C317.097 245.224 319.482 249.266 322.239 253.326C327.971 261.704 333.444 270.108 338.33 278.064C350.919 297.252 364.02 317.1 379.199 336.018C404.361 367.46 431.707 385.111 467.928 393.27C481.188 396.179 494.125 397.767 506.135 397.96C544.981 397.665 578.348 391.147 603.407 378.956L605.409 378.238C632.315 368.561 664.086 362.5 699.567 360.273C747.262 357.243 822.286 374.008 865.39 407.558C886.702 425.039 902.402 443.497 911.208 461.427C914.918 468.486 918.477 475.968 921.784 482.762C925.09 489.557 930.469 500.317 935.532 509.172L935.116 510.337C930.388 501.243 925.735 491.937 921.266 482.816Z" fill="#D8F8FF"/><path d="M925.574 476.152C922.344 469.146 918.747 461.77 914.998 454.817C906.303 437.014 890.725 418.678 869.547 401.318C826.81 368.137 752.449 351.609 705.272 354.585C669.801 356.676 638.109 362.697 611.41 372.418L609.408 373.136C584.169 385.344 550.634 391.879 511.619 392.193C499.414 391.924 486.335 390.321 472.931 387.452C436.269 379.134 407.634 360.904 383.173 329.593C367.811 310.49 354.71 290.642 342.121 271.454C336.793 263.34 331.099 254.857 326.03 246.716C323.477 242.698 320.999 238.469 318.888 234.61C316.777 230.75 315.872 228.397 314.235 225.304C305.404 207.459 296.282 189.032 267.225 172.681C246.801 161.649 224.292 152.486 201.294 145.84C178.296 139.194 155.371 135.228 134.143 134.223L134.37 133.588C155.565 134.604 178.434 138.544 201.389 145.135C224.345 151.726 246.838 160.809 267.307 171.755C296.654 188.687 305.96 207.299 314.715 225.356C316.352 228.449 317.99 231.542 319.406 234.556C321.406 238.56 323.791 242.602 326.548 246.662C332.28 255.04 337.753 263.444 342.638 271.4C355.228 290.588 368.329 310.436 383.507 329.354C408.67 360.796 436.016 378.446 472.236 386.606C485.496 389.515 498.434 391.103 510.444 391.296C549.29 391.001 582.657 384.483 607.716 372.292L609.717 371.574C636.623 361.897 668.394 355.835 703.876 353.609C751.571 350.579 826.595 367.344 869.699 400.894C891.01 418.375 906.71 436.833 915.516 454.763C919.227 461.822 922.786 469.304 926.092 476.098C929.398 482.893 934.778 493.653 939.841 502.508L939.425 503.673C934.696 494.579 930.044 485.273 925.574 476.152Z" fill="#D8F8FF"/><path d="M929.883 469.488C926.652 462.482 923.055 455.106 919.307 448.153C910.612 430.35 895.034 412.013 873.856 394.654C831.118 361.473 756.758 344.945 709.581 347.921C674.11 350.012 642.417 356.033 615.719 365.753L613.717 366.472C588.477 378.68 554.943 385.215 515.928 385.529C503.722 385.26 490.644 383.657 477.24 380.788C440.578 372.47 411.942 354.24 387.481 322.929C372.12 303.826 359.019 283.977 346.429 264.79C341.102 256.676 335.407 248.193 330.339 240.052C327.785 236.034 325.308 231.805 323.196 227.946C321.085 224.086 320.181 221.733 318.544 218.64C309.713 200.794 300.591 182.368 271.534 166.017C251.109 154.985 228.601 145.822 205.603 139.176C182.605 132.53 159.68 128.564 138.452 127.559L138.679 126.924C159.874 127.94 182.742 131.88 205.698 138.471C228.654 145.061 251.146 154.145 271.615 165.091C300.963 182.023 310.268 200.635 319.024 218.692C320.661 221.785 322.298 224.878 323.714 227.892C325.714 231.896 328.099 235.938 330.856 239.998C336.588 248.375 342.061 256.78 346.947 264.736C359.536 283.924 372.637 303.772 387.816 322.69C412.978 354.132 440.325 371.782 476.545 379.942C489.805 382.851 502.743 384.439 514.753 384.632C553.598 384.337 586.965 377.819 612.024 365.628L614.026 364.91C640.932 355.233 672.703 349.171 708.184 346.945C755.88 343.915 830.903 360.68 874.007 394.23C895.319 411.71 911.019 430.169 919.825 448.099C923.535 455.158 927.095 462.64 930.401 469.434C933.707 476.229 939.087 486.989 944.149 495.844L943.733 497.009C939.005 487.915 934.352 478.609 929.883 469.488Z" fill="#D8F8FF"/><path d="M934.196 462.824C930.965 455.818 927.368 448.442 923.62 441.489C914.925 423.686 899.346 405.349 878.169 387.99C835.431 354.809 761.07 338.281 713.893 341.257C678.422 343.348 646.73 349.369 620.031 359.089L618.03 359.808C592.79 372.016 559.255 378.551 520.24 378.865C508.035 378.596 494.956 376.993 481.552 374.124C444.89 365.806 416.255 347.576 391.794 316.264C376.432 297.162 363.331 277.313 350.742 258.126C345.414 250.012 339.72 241.528 334.651 233.388C332.098 229.37 329.62 225.141 327.509 221.282C325.398 217.422 324.494 215.069 322.856 211.976C314.025 194.13 304.903 175.704 275.846 159.353C255.422 148.321 232.913 139.158 209.916 132.512C186.918 125.866 163.992 121.9 142.764 120.895L142.991 120.26C164.186 121.276 187.055 125.216 210.01 131.807C232.966 138.397 255.459 147.481 275.928 158.426C305.276 175.359 314.581 193.971 323.336 212.028C324.974 215.121 326.611 218.214 328.027 221.228C330.027 225.231 332.412 229.274 335.169 233.334C340.901 241.711 346.374 250.116 351.26 258.072C363.849 277.259 376.95 297.108 392.128 316.026C417.291 347.468 444.637 365.118 480.857 373.278C494.117 376.187 507.055 377.775 519.065 377.968C557.911 377.673 591.278 371.154 616.337 358.964L618.338 358.246C645.244 348.569 677.015 342.507 712.497 340.281C760.192 337.251 835.216 354.016 878.32 387.566C899.632 405.046 915.331 423.505 924.137 441.435C927.848 448.494 931.407 455.976 934.713 462.77C938.02 469.565 943.399 480.325 948.462 489.18L948.046 490.345C943.318 481.251 938.665 471.945 934.196 462.824Z" fill="#D8F8FF"/><path d="M938.504 456.164C935.274 449.158 931.677 441.781 927.928 434.829C919.233 417.026 903.655 398.689 882.477 381.33C839.739 348.149 765.379 331.621 718.202 334.597C682.731 336.687 651.038 342.708 624.34 352.429L622.338 353.148C597.099 365.356 563.564 371.891 524.549 372.205C512.343 371.936 499.265 370.333 485.861 367.463C449.199 359.146 420.564 340.915 396.102 309.604C380.741 290.501 367.64 270.653 355.05 251.466C349.723 243.352 344.029 234.868 338.96 226.728C336.406 222.71 333.929 218.481 331.818 214.621C329.706 210.762 328.802 208.409 327.165 205.316C318.334 187.47 309.212 169.043 280.155 152.693C259.73 141.661 237.222 132.498 214.224 125.852C191.226 119.206 168.301 115.24 147.073 114.235L147.3 113.6C168.495 114.616 191.363 118.556 214.319 125.147C237.275 131.737 259.767 140.821 280.236 151.766C309.584 168.699 318.889 187.31 327.645 205.368C329.282 208.461 330.919 211.554 332.335 214.568C334.336 218.571 336.72 222.614 339.478 226.674C345.209 235.051 350.683 243.456 355.568 251.412C368.157 270.599 381.259 290.448 396.437 309.365C421.599 340.808 448.946 358.458 485.166 366.618C498.426 369.527 511.364 371.114 523.374 371.307C562.22 371.013 595.586 364.494 620.645 352.304L622.647 351.586C649.553 341.909 681.324 335.847 716.806 333.621C764.501 330.591 839.524 347.355 882.628 380.906C903.94 398.386 919.64 416.845 928.446 434.775C932.157 441.833 935.716 449.316 939.022 456.11C942.328 462.905 947.708 473.665 952.771 482.52L952.354 483.685C947.626 474.591 942.973 465.285 938.504 456.164Z" fill="#D8F8FF"/><path d="M942.813 449.5C939.582 442.494 935.985 435.117 932.237 428.165C923.542 410.362 907.963 392.025 886.786 374.666C844.048 341.485 769.688 324.957 722.51 327.933C687.039 330.023 655.347 336.044 628.648 345.765L626.647 346.484C601.407 358.692 567.872 365.227 528.857 365.541C516.652 365.272 503.573 363.669 490.17 360.799C453.507 352.482 424.872 334.251 400.411 302.94C385.049 283.837 371.948 263.989 359.359 244.802C354.031 236.688 348.337 228.204 343.268 220.064C340.715 216.046 338.237 211.817 336.126 207.957C334.015 204.098 333.111 201.744 331.474 198.652C322.642 180.806 313.52 162.379 284.463 146.029C264.039 134.997 241.531 125.833 218.533 119.188C195.535 112.542 172.61 108.576 151.381 107.571L151.608 106.936C172.803 107.952 195.672 111.892 218.628 118.483C241.583 125.073 264.076 134.157 284.545 145.102C313.893 162.035 323.198 180.646 331.954 198.704C333.591 201.796 335.228 204.889 336.644 207.903C338.644 211.907 341.029 215.95 343.786 220.01C349.518 228.387 354.991 236.792 359.877 244.748C372.466 263.935 385.567 283.783 400.745 302.701C425.908 334.143 453.254 351.794 489.475 359.954C502.734 362.862 515.672 364.45 527.682 364.643C566.528 364.349 599.895 357.83 624.954 345.64L626.955 344.922C653.862 335.245 685.632 329.183 721.114 326.956C768.809 323.927 843.833 340.691 886.937 374.242C908.249 391.722 923.949 410.181 932.755 428.111C936.465 435.169 940.024 442.651 943.33 449.446C946.637 456.241 952.016 467.001 957.079 475.856L956.663 477.021C951.935 467.927 947.282 458.621 942.813 449.5Z" fill="#D8F8FF"/><path d="M947.121 442.836C943.891 435.83 940.294 428.453 936.545 421.501C927.85 403.698 912.272 385.361 891.094 368.002C848.357 334.821 773.996 318.293 726.819 321.269C691.348 323.359 659.656 329.38 632.957 339.101L630.955 339.819C605.716 352.028 572.181 358.563 533.166 358.877C520.961 358.608 507.882 357.005 494.478 354.135C457.816 345.818 429.181 327.587 404.719 296.276C389.358 277.173 376.257 257.325 363.668 238.138C358.34 230.024 352.646 221.54 347.577 213.399C345.024 209.382 342.546 205.153 340.435 201.293C338.324 197.434 337.419 195.08 335.782 191.987C326.951 174.142 317.829 155.715 288.772 139.365C268.348 128.333 245.839 119.169 222.841 112.524C199.843 105.878 176.918 101.912 155.69 100.907L155.917 100.272C177.112 101.288 199.981 105.228 222.936 111.818C245.892 118.409 268.384 127.492 288.853 138.438C318.201 155.371 327.507 173.982 336.262 192.039C337.899 195.132 339.536 198.225 340.953 201.239C342.953 205.243 345.338 209.285 348.095 213.346C353.827 221.723 359.3 230.128 364.185 238.084C376.775 257.271 389.876 277.119 405.054 296.037C430.216 327.479 457.563 345.13 493.783 353.29C507.043 356.198 519.981 357.786 531.991 357.979C570.837 357.685 604.204 351.166 629.262 338.976L631.264 338.258C658.17 328.581 689.941 322.519 725.423 320.292C773.118 317.263 848.142 334.027 891.246 367.578C912.557 385.058 928.257 403.517 937.063 421.447C940.774 428.505 944.333 435.987 947.639 442.782C950.945 449.576 956.325 460.336 961.388 469.192L960.972 470.357C956.243 461.263 951.591 451.957 947.121 442.836Z" fill="#D8F8FF"/><path d="M951.43 436.176C948.199 429.169 944.602 421.793 940.854 414.841C932.159 397.038 916.581 378.701 895.403 361.342C852.665 328.161 778.305 311.633 731.128 314.609C695.657 316.699 663.964 322.72 637.265 332.441L635.264 333.159C610.024 345.367 576.489 351.903 537.475 352.217C525.269 351.948 512.19 350.345 498.787 347.475C462.124 339.157 433.489 320.927 409.028 289.616C393.667 270.513 380.565 250.665 367.976 231.477C362.648 223.364 356.954 214.88 351.886 206.739C349.332 202.722 346.855 198.493 344.743 194.633C342.632 190.774 341.728 188.42 340.091 185.327C331.26 167.482 322.138 149.055 293.08 132.704C272.656 121.673 250.148 112.509 227.15 105.863C204.152 99.2175 181.227 95.2517 159.999 94.2469L160.226 93.6114C181.421 94.6275 204.289 98.5676 227.245 105.158C250.2 111.749 272.693 120.832 293.162 131.778C322.51 148.71 331.815 167.322 340.571 185.379C342.208 188.472 343.845 191.565 345.261 194.579C347.261 198.583 349.646 202.625 352.403 206.685C358.135 215.063 363.608 223.468 368.494 231.423C381.083 250.611 394.184 270.459 409.363 289.377C434.525 320.819 461.871 338.47 498.092 346.63C511.352 349.538 524.29 351.126 536.3 351.319C575.145 351.025 608.512 344.506 633.571 332.316L635.573 331.597C662.479 321.921 694.25 315.859 729.731 313.632C777.426 310.603 852.45 327.367 895.554 360.918C916.866 378.398 932.566 396.857 941.372 414.787C945.082 421.845 948.641 429.327 951.948 436.122C955.254 442.916 960.634 453.676 965.696 462.532L965.28 463.697C960.552 454.603 955.899 445.297 951.43 436.176Z" fill="#D8F8FF"/><path d="M955.742 429.512C952.512 422.505 948.915 415.129 945.166 408.177C936.471 390.374 920.893 372.037 899.715 354.677C856.978 321.496 782.617 304.969 735.44 307.945C699.969 310.035 668.277 316.056 641.578 325.777L639.576 326.495C614.337 338.703 580.802 345.239 541.787 345.552C529.582 345.284 516.503 343.681 503.099 340.811C466.437 332.493 437.802 314.263 413.341 282.952C397.979 263.849 384.878 244.001 372.289 224.813C366.961 216.7 361.267 208.216 356.198 200.075C353.645 196.058 351.167 191.829 349.056 187.969C346.945 184.11 346.04 181.756 344.403 178.663C335.572 160.818 326.45 142.391 297.393 126.04C276.969 115.009 254.46 105.845 231.462 99.1993C208.464 92.5534 185.539 88.5876 164.311 87.5828L164.538 86.9473C185.733 87.9635 208.602 91.9036 231.557 98.4942C254.513 105.085 277.006 114.168 297.475 125.114C326.822 142.046 336.128 160.658 344.883 178.715C346.52 181.808 348.158 184.901 349.574 187.915C351.574 191.919 353.959 195.961 356.716 200.021C362.448 208.399 367.921 216.804 372.806 224.759C385.396 243.947 398.497 263.795 413.675 282.713C438.837 314.155 466.184 331.806 502.404 339.966C515.664 342.874 528.602 344.462 540.612 344.655C579.458 344.361 612.825 337.842 637.884 325.652L639.885 324.933C666.791 315.257 698.562 309.195 734.044 306.968C781.739 303.939 856.763 320.703 899.867 354.254C921.178 371.734 936.878 390.193 945.684 408.123C949.395 415.181 952.954 422.663 956.26 429.458C959.566 436.252 964.946 447.012 970.009 455.867L969.593 457.033C964.864 447.939 960.212 438.633 955.742 429.512Z" fill="#D8F8FF"/><path d="M960.051 422.848C956.82 415.841 953.223 408.465 949.475 401.513C940.78 383.71 925.202 365.373 904.024 348.013C861.286 314.832 786.926 298.305 739.749 301.281C704.278 303.371 672.585 309.392 645.887 319.113L643.885 319.831C618.645 332.039 585.111 338.575 546.096 338.888C533.89 338.619 520.812 337.017 507.408 334.147C470.745 325.829 442.11 307.599 417.649 276.288C402.288 257.185 389.187 237.337 376.597 218.149C371.27 210.035 365.575 201.552 360.507 193.411C357.953 189.394 355.476 185.165 353.364 181.305C351.253 177.446 350.349 175.092 348.712 171.999C339.881 154.154 330.759 135.727 301.701 119.376C281.277 108.345 258.769 99.1811 235.771 92.5353C212.773 85.8894 189.848 81.9236 168.62 80.9188L168.847 80.2832C190.042 81.2994 212.91 85.2395 235.866 91.8302C258.821 98.4208 281.314 107.504 301.783 118.45C331.131 135.382 340.436 153.994 349.192 172.051C350.829 175.144 352.466 178.237 353.882 181.251C355.882 185.255 358.267 189.297 361.024 193.357C366.756 201.735 372.229 210.139 377.115 218.095C389.704 237.283 402.805 257.131 417.984 276.049C443.146 307.491 470.493 325.142 506.713 333.302C519.973 336.21 532.911 337.798 544.921 337.991C583.766 337.697 617.133 331.178 642.192 318.988L644.194 318.269C671.1 308.593 702.871 302.531 738.352 300.304C786.048 297.274 861.071 314.039 904.175 347.59C925.487 365.07 941.187 383.529 949.993 401.459C953.703 408.517 957.263 415.999 960.569 422.794C963.875 429.588 969.255 440.348 974.317 449.203L973.901 450.369C969.173 441.275 964.52 431.969 960.051 422.848Z" fill="#D8F8FF"/><path d="M964.36 416.184C961.129 409.177 957.532 401.801 953.784 394.849C945.089 377.046 929.51 358.709 908.333 341.349C865.595 308.168 791.235 291.641 744.057 294.616C708.586 296.707 676.894 302.728 650.195 312.449L648.194 313.167C622.954 325.375 589.419 331.911 550.404 332.224C538.199 331.955 525.12 330.352 511.717 327.483C475.054 319.165 446.419 300.935 421.958 269.624C406.596 250.521 393.495 230.673 380.906 211.485C375.578 203.371 369.884 194.888 364.815 186.747C362.262 182.73 359.784 178.5 357.673 174.641C355.562 170.782 354.658 168.428 353.02 165.335C344.189 147.49 335.067 129.063 306.01 112.712C285.586 101.68 263.078 92.5171 240.08 85.8712C217.082 79.2253 194.157 75.2595 172.928 74.2547L173.155 73.6192C194.35 74.6353 217.219 78.5754 240.174 85.1661C263.13 91.7568 285.623 100.84 306.092 111.786C335.44 128.718 344.745 147.33 353.5 165.387C355.138 168.48 356.775 171.573 358.191 174.587C360.191 178.591 362.576 182.633 365.333 186.693C371.065 195.071 376.538 203.475 381.424 211.431C394.013 230.619 407.114 250.467 422.292 269.385C447.455 300.827 474.801 318.478 511.021 326.638C524.281 329.546 537.219 331.134 549.229 331.327C588.075 331.033 621.442 324.514 646.501 312.324L648.502 311.605C675.409 301.928 707.179 295.867 742.661 293.64C790.356 290.61 865.38 307.375 908.484 340.926C929.796 358.406 945.496 376.865 954.301 394.795C958.012 401.853 961.571 409.335 964.877 416.13C968.184 422.924 973.563 433.684 978.626 442.539L978.21 443.704C973.482 434.61 968.829 425.305 964.36 416.184Z" fill="#D8F8FF"/><path d="M968.668 409.523C965.438 402.517 961.841 395.141 958.092 388.188C949.397 370.385 933.819 352.049 912.641 334.689C869.904 301.508 795.543 284.981 748.366 287.956C712.895 290.047 681.202 296.068 654.504 305.789L652.502 306.507C627.263 318.715 593.728 325.25 554.713 325.564C542.508 325.295 529.429 323.692 516.025 320.823C479.363 312.505 450.728 294.275 426.266 262.964C410.905 243.861 397.804 224.013 385.214 204.825C379.887 196.711 374.193 188.228 369.124 180.087C366.57 176.07 364.093 171.84 361.982 167.981C359.87 164.121 358.966 161.768 357.329 158.675C348.498 140.83 339.376 122.403 310.319 106.052C289.894 95.0203 267.386 85.8569 244.388 79.211C221.39 72.5652 198.465 68.5994 177.237 67.5946L177.464 66.959C198.659 67.9752 221.528 71.9153 244.483 78.5059C267.439 85.0966 289.931 94.18 310.4 105.126C339.748 122.058 349.053 140.67 357.809 158.727C359.446 161.82 361.083 164.913 362.499 167.927C364.5 171.931 366.884 175.973 369.642 180.033C375.374 188.411 380.847 196.815 385.732 204.771C398.322 223.959 411.423 243.807 426.601 262.725C451.763 294.167 479.11 311.818 515.33 319.977C528.59 322.886 541.528 324.474 553.538 324.667C592.384 324.372 625.751 317.854 650.809 305.663L652.811 304.945C679.717 295.268 711.488 289.207 746.97 286.98C794.665 283.95 869.688 300.715 912.793 334.266C934.104 351.746 949.804 370.204 958.61 388.134C962.321 395.193 965.88 402.675 969.186 409.469C972.492 416.264 977.872 427.024 982.935 435.879L982.518 437.044C977.79 427.95 973.138 418.644 968.668 409.523Z" fill="#D8F8FF"/><path d="M972.977 402.859C969.746 395.853 966.149 388.477 962.401 381.524C953.706 363.721 938.127 345.385 916.95 328.025C874.212 294.844 799.852 278.317 752.674 281.292C717.203 283.383 685.511 289.404 658.812 299.125L656.811 299.843C631.571 312.051 598.036 318.586 559.021 318.9C546.816 318.631 533.737 317.028 520.334 314.159C483.671 305.841 455.036 287.611 430.575 256.3C415.213 237.197 402.112 217.349 389.523 198.161C384.195 190.047 378.501 181.564 373.432 173.423C370.879 169.406 368.401 165.176 366.29 161.317C364.179 157.457 363.275 155.104 361.638 152.011C352.806 134.166 343.684 115.739 314.627 99.388C294.203 88.3562 271.695 79.1929 248.697 72.547C225.699 65.9011 202.774 61.9353 181.546 60.9305L181.773 60.2949C202.967 61.3111 225.836 65.2512 248.792 71.8419C271.747 78.4326 294.24 87.5159 314.709 98.4616C344.057 115.394 353.362 134.006 362.118 152.063C363.755 155.156 365.392 158.249 366.808 161.263C368.808 165.267 371.193 169.309 373.95 173.369C379.682 181.747 385.155 190.151 390.041 198.107C402.63 217.295 415.731 237.143 430.91 256.061C456.072 287.503 483.418 305.154 519.639 313.313C532.898 316.222 545.836 317.81 557.846 318.003C596.692 317.708 630.059 311.19 655.118 298.999L657.119 298.281C684.026 288.604 715.796 282.543 751.278 280.316C798.973 277.286 873.997 294.051 917.101 327.601C938.413 345.082 954.113 363.54 962.919 381.47C966.629 388.529 970.188 396.011 973.495 402.805C976.801 409.6 982.18 420.36 987.243 429.215L986.827 430.38C982.099 421.286 977.446 411.98 972.977 402.859Z" fill="#D8F8FF"/><path d="M977.285 396.195C974.055 389.189 970.458 381.813 966.709 374.86C958.014 357.057 942.436 338.72 921.258 321.361C878.521 288.18 804.16 271.652 756.983 274.628C721.512 276.719 689.82 282.74 663.121 292.461L661.119 293.179C635.88 305.387 602.345 311.922 563.33 312.236C551.125 311.967 538.046 310.364 524.642 307.495C487.98 299.177 459.345 280.947 434.884 249.636C419.522 230.533 406.421 210.684 393.832 191.497C388.504 183.383 382.81 174.9 377.741 166.759C375.188 162.741 372.71 158.512 370.599 154.653C368.488 150.793 367.583 148.44 365.946 145.347C357.115 127.502 347.993 109.075 318.936 92.7239C298.512 81.6922 276.003 72.5288 253.005 65.8829C230.007 59.237 207.082 55.2712 185.854 54.2664L186.081 53.6309C207.276 54.647 230.145 58.5872 253.1 65.1778C276.056 71.7685 298.549 80.8518 319.017 91.7976C348.365 108.73 357.671 127.342 366.426 145.399C368.063 148.492 369.701 151.585 371.117 154.599C373.117 158.603 375.502 162.645 378.259 166.705C383.991 175.083 389.464 183.487 394.349 191.443C406.939 210.631 420.04 230.479 435.218 249.397C460.38 280.839 487.727 298.489 523.947 306.649C537.207 309.558 550.145 311.146 562.155 311.339C601.001 311.044 634.368 304.526 659.427 292.335L661.428 291.617C688.334 281.94 720.105 275.878 755.587 273.652C803.282 270.622 878.306 287.387 921.41 320.937C942.721 338.417 958.421 356.876 967.227 374.806C970.938 381.865 974.497 389.347 977.803 396.141C981.109 402.936 986.489 413.696 991.552 422.551L991.136 423.716C986.407 414.622 981.755 405.316 977.285 396.195Z" fill="#D8F8FF"/><path d="M981.598 389.531C978.367 382.525 974.77 375.149 971.022 368.196C962.327 350.393 946.748 332.056 925.571 314.697C882.833 281.516 808.473 264.988 761.295 267.964C725.825 270.055 694.132 276.076 667.433 285.796L665.432 286.515C640.192 298.723 606.657 305.258 567.643 305.572C555.437 305.303 542.358 303.7 528.955 300.831C492.292 292.513 463.657 274.283 439.196 242.971C423.835 223.869 410.733 204.02 398.144 184.833C392.816 176.719 387.122 168.236 382.053 160.095C379.5 156.077 377.023 151.848 374.911 147.989C372.8 144.129 371.896 141.776 370.259 138.683C361.427 120.837 352.305 102.411 323.248 86.0599C302.824 75.0281 280.316 65.8647 257.318 59.2189C234.32 52.573 211.395 48.6072 190.167 47.6024L190.394 46.9668C211.588 47.983 234.457 51.9231 257.413 58.5138C280.368 65.1044 302.861 74.1878 323.33 85.1335C352.678 102.066 361.983 120.678 370.739 138.735C372.376 141.828 374.013 144.921 375.429 147.935C377.429 151.939 379.814 155.981 382.571 160.041C388.303 168.418 393.776 176.823 398.662 184.779C411.251 203.966 424.352 223.815 439.531 242.733C464.693 274.175 492.039 291.825 528.26 299.985C541.52 302.894 554.458 304.482 566.467 304.675C605.313 304.38 638.68 297.862 663.739 285.671L665.741 284.953C692.647 275.276 724.418 269.214 759.899 266.988C807.594 263.958 882.618 280.723 925.722 314.273C947.034 331.753 962.734 350.212 971.54 368.142C975.25 375.201 978.809 382.683 982.116 389.477C985.422 396.272 990.801 407.032 995.864 415.887L995.448 417.052C990.72 407.958 986.067 398.652 981.598 389.531Z" fill="#D8F8FF"/><path d="M985.906 382.871C982.676 375.865 979.079 368.489 975.33 361.536C966.635 343.733 951.057 325.396 929.879 308.037C887.142 274.856 812.781 258.328 765.604 261.304C730.133 263.394 698.441 269.415 671.742 279.136L669.74 279.855C644.501 292.063 610.966 298.598 571.951 298.912C559.746 298.643 546.667 297.04 533.263 294.171C496.601 285.853 467.966 267.622 443.505 236.311C428.143 217.208 415.042 197.36 402.453 178.173C397.125 170.059 391.431 161.575 386.362 153.435C383.809 149.417 381.331 145.188 379.22 141.328C377.109 137.469 376.204 135.116 374.567 132.023C365.736 114.177 356.614 95.7504 327.557 79.3997C307.133 68.3679 284.624 59.2046 261.626 52.5587C238.628 45.9128 215.703 41.947 194.475 40.9422L194.702 40.3067C215.897 41.3228 238.766 45.2629 261.721 51.8536C284.677 58.4443 307.17 67.5276 327.639 78.4734C356.987 95.4057 366.292 114.017 375.047 132.075C376.684 135.168 378.322 138.261 379.738 141.275C381.738 145.278 384.123 149.321 386.88 153.381C392.612 161.758 398.085 170.163 402.971 178.119C415.56 197.306 428.661 217.155 443.839 236.073C469.002 267.515 496.348 285.165 532.568 293.325C545.828 296.234 558.766 297.821 570.776 298.014C609.622 297.72 642.989 291.201 668.048 279.011L670.049 278.293C696.955 268.616 728.726 262.554 764.208 260.328C811.903 257.298 886.927 274.062 930.031 307.613C951.342 325.093 967.042 343.552 975.848 361.482C979.559 368.541 983.118 376.023 986.424 382.817C989.73 389.612 995.11 400.372 1000.17 409.227L999.757 410.392C995.028 401.298 990.376 391.992 985.906 382.871Z" fill="#D8F8FF"/><g style="mix-blend-mode:soft-light"><path d="M990.215 376.207C986.984 369.201 983.387 361.824 979.639 354.872C970.944 337.069 955.366 318.732 934.188 301.373C891.45 268.192 817.09 251.664 769.913 254.64C734.442 256.73 702.749 262.751 676.051 272.472L674.049 273.191C648.81 285.399 615.275 291.934 576.26 292.248C564.054 291.979 550.976 290.376 537.572 287.506C500.91 279.189 472.275 260.958 447.813 229.647C432.452 210.544 419.351 190.696 406.761 171.509C401.434 163.395 395.739 154.911 390.671 146.771C388.117 142.753 385.64 138.524 383.529 134.664C381.417 130.805 380.513 128.452 378.876 125.359C370.045 107.513 360.923 89.0863 331.866 72.7356C311.441 61.7039 288.933 52.5405 265.935 45.8946C242.937 39.2488 220.012 35.283 198.784 34.2781L199.011 33.6426C220.206 34.6588 243.074 38.5989 266.03 45.1895C288.986 51.7802 311.478 60.8636 331.947 71.8093C361.295 88.7416 370.6 107.353 379.356 125.411C380.993 128.504 382.63 131.596 384.046 134.611C386.046 138.614 388.431 142.657 391.188 146.717C396.92 155.094 402.394 163.499 407.279 171.455C419.868 190.642 432.97 210.49 448.148 229.408C473.31 260.85 500.657 278.501 536.877 286.661C550.137 289.569 563.075 291.157 575.085 291.35C613.931 291.056 647.297 284.537 672.356 272.347L674.358 271.629C701.264 261.952 733.035 255.89 768.517 253.663C816.212 250.634 891.235 267.398 934.339 300.949C955.651 318.429 971.351 336.888 980.157 354.818C983.867 361.876 987.427 369.359 990.733 376.153C994.039 382.948 999.419 393.708 1004.48 402.563L1004.07 403.728C999.337 394.634 994.684 385.328 990.215 376.207Z" fill="#D8F8FF"/></g></svg>